<?xml version="1.0" encoding="utf-8"?>
<!-- Generator: Adobe Illustrator 26.2.1, SVG Export Plug-In . SVG Version: 6.00 Build 0)  -->
<svg version="1.1" id="Layer_1" xmlns="http://www.w3.org/2000/svg" xmlns:xlink="http://www.w3.org/1999/xlink" x="0px" y="0px"
	 width="221.1px" height="180.2px" viewBox="0 0 221.1 180.2" style="enable-background:new 0 0 221.1 180.2;" xml:space="preserve"
	>
<style type="text/css">
	.st0{enable-background:new    ;}
</style>
<g>
	<g>
		<path d="M50.1,0c0,0-6.2,7.9-11,8.8S40.9-0.4,50.1,0z"/>
		<path d="M29.4,4.4c0,0,1.7,9.9-0.9,14.1S22.9,11,29.4,4.4z"/>
		<path d="M48.1,8.6c0,0-10,0.5-13.6,4S43.1,16.5,48.1,8.6z"/>
		<path d="M16,22.5c0,0,3.4,9.5,1.6,14S10.7,30.1,16,22.5z"/>
		<path d="M3.5,41c0,0,8.1,7.6,8.5,13C12.5,59.4,2.1,51.1,3.5,41z"/>
		<path d="M0.8,64.5c0,0,8.1,7.6,8.5,13S-0.7,74.6,0.8,64.5z"/>
		<path d="M0,88.2c0,0,9.4,5.4,11,10.3C12.6,103.5,0.8,98,0,88.2z"/>
		<path d="M1.3,109.9c0,0,10.9,2.2,14,6.6C18.4,120.8,5.2,119.2,1.3,109.9z"/>
		<path d="M7.5,134.5c0,0,11.4-3.2,16.5-0.7C29.2,136.4,15.8,141.4,7.5,134.5z"/>
		<path d="M19.5,154.4c0,0,12.6-5.5,18.8-3.3C44.5,153.3,29.8,161.1,19.5,154.4z"/>
		<path d="M37,170.9c0,0,10.9-8.4,17.4-7.8S48.6,174.9,37,170.9z"/>
		<path d="M56.1,178.6c0,0,10.9-6.2,16.8-4.8C78.7,175.2,66.1,183.7,56.1,178.6z"/>
		<path d="M37.1,23.7c0,0-10,0.5-13.6,4S32.1,31.5,37.1,23.7z"/>
		<path d="M27.4,38.5c0,0-9.5,3.3-11.9,7.6S24.8,47.5,27.4,38.5z"/>
		<path d="M26.1,114c0,0-4.9,10-3.4,15.3S31.1,123.1,26.1,114z"/>
		<path d="M61,149.4c0,0-1.6,12.6,1.9,18.1C66.4,173.1,69.6,158.3,61,149.4z"/>
		<path d="M35.7,128.4c0,0-3.4,12.1-0.7,17.3C37.8,150.9,43.1,136.5,35.7,128.4z"/>
		<path d="M48.8,139.9c0,0-3.3,13-0.3,18.5C51.5,163.8,56.8,148.4,48.8,139.9z"/>
		<path d="M20.3,56.6c0,0-8.1,6-9.1,10.8S20.5,65.9,20.3,56.6z"/>
		<path d="M20.7,93.7c0,0-5.5,8.5-5.4,14.7C15.3,114.5,22.5,105.2,20.7,93.7z"/>
		<path d="M17.2,75.6c0,0-6.6,7.6-6.6,12.5S19.4,84.7,17.2,75.6z"/>
		<path d="M84.4,174.2c-32.3-7.7-73.2-38.9-72.9-95.1C11.7,43,27.8,20.1,40.7,6C25.8,19.7,9.9,37.9,8.8,79
			c-1.6,56.1,41.1,94.2,73.9,97.9C82.7,176.9,88.2,175.2,84.4,174.2z"/>
	</g>
	<g>
		<path d="M171,0c0,0,6.2,7.9,11,8.8S180.2-0.4,171,0z"/>
		<path d="M191.6,4.4c0,0-1.7,9.9,0.9,14.1S198.2,11,191.6,4.4z"/>
		<path d="M173,8.6c0,0,10,0.5,13.6,4S178,16.5,173,8.6z"/>
		<path d="M205.1,22.5c0,0-3.4,9.5-1.6,14S210.4,30.1,205.1,22.5z"/>
		<path d="M217.6,41c0,0-8.1,7.6-8.5,13C208.6,59.4,219,51.1,217.6,41z"/>
		<path d="M220.3,64.5c0,0-8.1,7.6-8.5,13S221.7,74.6,220.3,64.5z"/>
		<path d="M221.1,88.2c0,0-9.4,5.4-11,10.3C208.5,103.5,220.3,98,221.1,88.2z"/>
		<path d="M219.8,109.9c0,0-10.9,2.2-14,6.6C202.6,120.8,215.9,119.2,219.8,109.9z"/>
		<path d="M213.5,134.5c0,0-11.4-3.2-16.5-0.7C191.9,136.4,205.3,141.4,213.5,134.5z"/>
		<path d="M201.6,154.4c0,0-12.6-5.5-18.8-3.3C176.6,153.3,191.3,161.1,201.6,154.4z"/>
		<path d="M184.1,170.9c0,0-10.9-8.4-17.4-7.8S172.5,174.9,184.1,170.9z"/>
		<path d="M165,178.6c0,0-10.9-6.2-16.8-4.8C142.4,175.2,155,183.7,165,178.6z"/>
		<path d="M184,23.7c0,0,10,0.5,13.6,4S188.9,31.5,184,23.7z"/>
		<path d="M193.7,38.5c0,0,9.5,3.3,11.9,7.6C208,50.5,196.2,47.5,193.7,38.5z"/>
		<path d="M194.9,114c0,0,4.9,10,3.4,15.3C196.9,134.6,190,123.1,194.9,114z"/>
		<path d="M160.1,149.4c0,0,1.6,12.6-1.9,18.1C154.7,173.1,151.5,158.3,160.1,149.4z"/>
		<path d="M185.3,128.4c0,0,3.4,12.1,0.7,17.3S178,136.5,185.3,128.4z"/>
		<path d="M172.3,139.9c0,0,3.3,13,0.3,18.5C169.6,163.8,164.3,148.4,172.3,139.9z"/>
		<path d="M200.8,56.6c0,0,8.1,6,9.1,10.8C210.9,72.3,200.6,65.9,200.8,56.6z"/>
		<path d="M200.4,93.7c0,0,5.5,8.5,5.4,14.7S198.5,105.2,200.4,93.7z"/>
		<path d="M203.8,75.6c0,0,6.6,7.6,6.6,12.5S201.7,84.7,203.8,75.6z"/>
		<path d="M136.7,174.2c32.3-7.7,73.2-38.9,72.9-95.1c-0.2-36.2-16.3-59-29.1-73.1c14.8,13.7,30.7,31.9,31.9,73
			c1.6,56.1-41.1,94.2-73.9,97.9C138.4,176.9,132.9,175.2,136.7,174.2z"/>
	</g>
</g>
<g class="st0">
	<path d="M76,34.6h7.8c4.4,0,6.5,2.5,6.5,5.7c0,2-1,3.4-2.7,4.2c2.6,0.7,4.2,2.7,4.2,5.6c0,3.7-2.4,6.7-7.4,6.7H76V34.6z M83.6,43.2
		c2.4,0,3.2-1.1,3.2-2.9c0-1.7-0.8-2.8-3.2-2.8h-4.2v5.7H83.6z M84.2,53.7c3.1,0,4.1-1.5,4.1-3.8S87.1,46,84,46h-4.6v7.6h4.8V53.7z"
		/>
	<path d="M95.3,34.6h14.1v3.1H98.8v9.2h9.4v3h-9.4v3.7h11.1v3.1H95.3V34.6z"/>
	<path d="M115.1,50.9c1,2,2.7,3,5,3s3.9-1.1,3.9-2.9c0-2.1-1.6-2.8-3.5-3.7l-1.5-0.7c-3.3-1.4-5.5-3.1-5.5-6.6
		c0-3.4,2.5-5.8,6.1-5.8c2.8,0,4.9,1.1,6.3,3.5l-2.6,1.7c-0.8-1.4-2-2.1-3.6-2.1c-1.8,0-2.8,1-2.8,2.6c0,1.8,1.1,2.4,3.5,3.5
		l1.5,0.7c3.3,1.5,5.6,3,5.6,6.8c0,4.1-3.1,6.1-7.3,6.1c-3.7,0-6.5-1.8-8-4.7L115.1,50.9z"/>
	<path d="M135.1,37.6h-6.6v-3.1h16.6v3.1h-6.6v19h-3.4V37.6z"/>
</g>
<g class="st0">
	<path d="M47.5,71.9c0-6.5,5-11.3,11.3-11.3c4.1,0,6.9,1.6,8.8,4.3l-2.7,1.9c-1.5-2-3.3-3-6.3-3c-4.4,0-7.6,3.5-7.6,8.2
		c0,4.8,3.3,8.2,7.7,8.2c2.9,0,5-1.1,6.6-3.2l2.7,1.9c-2.3,3-5.2,4.5-9.5,4.5C52.4,83.3,47.5,78.5,47.5,71.9z"/>
	<path d="M73.1,83h-3.5l9.7-22.6h0.2L89.2,83h-3.7l-1.3-3.1h-9.9L73.1,83z M79.3,68l-3.7,8.8H83L79.3,68z"/>
	<path d="M95.6,68.4V83h-3.3V60.5h0.3l14.1,14.9V60.9h3.3v22.4h-0.3L95.6,68.4z"/>
	<path d="M118,68.4V83h-3.3V60.5h0.3l14.2,14.9V60.9h3.3v22.4h-0.3L118,68.4z"/>
	<path d="M137.3,60.9h14.1V64h-10.7v9.2h9.4v3h-9.4v3.7h11.1V83h-14.5V60.9z"/>
	<path d="M155.9,60.9h6.2c7.2,0,11.6,4.5,11.6,11.1s-4.4,11-11.6,11h-6.2V60.9z M161.9,79.9c5.7,0,8.2-3.3,8.2-8s-2.5-8-8.2-8h-2.6
		v15.9L161.9,79.9L161.9,79.9z"/>
</g>
<g class="st0">
	<path d="M35.8,98.2c0-6.5,5-11.3,11.3-11.3c4.1,0,6.9,1.6,8.8,4.3L53.3,93c-1.5-2-3.3-3-6.3-3c-4.4,0-7.6,3.5-7.6,8.2
		c0,4.8,3.3,8.2,7.7,8.2c2.9,0,5-1.1,6.6-3.2l2.7,1.8c-2.3,3-5.2,4.5-9.5,4.5C40.7,109.6,35.8,104.8,35.8,98.2z"/>
	<path d="M58.2,98.2c0-6.5,5.1-11.3,11.4-11.3c6.3,0,11.4,4.8,11.4,11.3s-5.1,11.3-11.4,11.3S58.2,104.8,58.2,98.2z M77.5,98.2
		c0-4.7-3.2-8.2-7.8-8.2s-7.8,3.5-7.8,8.2s3.2,8.2,7.8,8.2C74.2,106.4,77.5,102.9,77.5,98.2z"/>
	<path d="M83.7,98.2c0-6.5,5-11.3,11.3-11.3c4.1,0,6.9,1.6,8.8,4.3l-2.6,1.8c-1.5-2-3.3-3-6.3-3c-4.4,0-7.6,3.5-7.6,8.2
		c0,4.8,3.3,8.2,7.7,8.2c2.9,0,5-1.1,6.6-3.2l2.7,1.9c-2.3,3-5.2,4.5-9.5,4.5C88.6,109.6,83.7,104.8,83.7,98.2z"/>
	<path d="M120,87.2h3.9l-7.8,9.9l9,12.2h-4.2l-7.1-9.6l-2.4,3v6.6h-3.5V87.2h3.5v11L120,87.2z"/>
	<path d="M132.2,90.2h-6.6v-3.1h16.6v3.1h-6.6v19h-3.5v-19H132.2z"/>
	<path d="M144.3,109.3h-3.5l9.7-22.6h0.2l9.7,22.6h-3.7l-1.3-3.1h-9.9L144.3,109.3z M150.6,94.3l-3.7,8.7h7.3
		C154.2,103.1,150.6,94.3,150.6,94.3z"/>
	<path d="M163.6,87.2h3.5v22.1h-3.5V87.2z"/>
	<path d="M172,87.2h3.5v19h9.8v3.1h-13.2V87.2H172z"/>
</g>
<g class="st0">
	<path d="M50.7,132c0.6,1.2,1.7,1.8,3,1.8c1.4,0,2.4-0.7,2.4-1.8c0-1.3-0.9-1.7-2.1-2.2l-0.9-0.4c-2-0.9-3.3-1.9-3.3-4
		c0-2,1.5-3.5,3.7-3.5c1.7,0,3,0.7,3.8,2.1l-1.6,1c-0.5-0.9-1.2-1.3-2.2-1.3c-1.1,0-1.7,0.6-1.7,1.6c0,1.1,0.6,1.5,2.1,2.1l0.9,0.4
		c2,0.9,3.4,1.8,3.4,4.1c0,2.5-1.9,3.7-4.4,3.7c-2.3,0-3.9-1.1-4.8-2.8L50.7,132z"/>
	<path d="M60.4,122.1h8.5v1.9h-6.4v5.6h5.7v1.8h-5.7v2.3h6.7v1.9h-8.8C60.3,135.6,60.3,122.1,60.4,122.1z"/>
	<path d="M71.7,122.1h2.1v11.5h5.9v1.9h-8V122.1z"/>
	<path d="M82.8,124h-4v-1.9h10.1v1.9h-4v11.5h-2.1V124z"/>
	<path d="M89.5,135.4l7-11.4h-6v-1.9h9.4v0.1l-7.1,11.4h6.9v1.9L89.5,135.4L89.5,135.4z"/>
	<path d="M102.1,122.1h8.5v1.9h-6.4v5.6h5.7v1.8h-5.7v2.3h6.7v1.9H102C102,135.6,102,122.1,102.1,122.1z"/>
	<path d="M122.6,135.5h-2.5l-2.3-3.2c-0.3,0-0.6,0.1-1,0.1h-1.3v3.2h-2.1v-13.4h3.4c3.7,0,5.7,2,5.7,5.1c0,2.1-0.9,3.7-2.7,4.5
		L122.6,135.5z M116.7,130.5c2.6,0,3.6-1.2,3.6-3.3c0-2-1.1-3.2-3.6-3.2h-1.2v6.5H116.7z"/>
	<path d="M124.9,122.1h2.1v11.5h5.9v1.9h-8C124.8,135.5,124.8,122.1,124.9,122.1z"/>
	<path d="M136.1,135.5h-2.1l5.9-13.7h0.1l5.9,13.7h-2.2l-0.8-1.9h-6L136.1,135.5z M139.8,126.5l-2.2,5.3h4.4
		C142.1,131.8,139.8,126.5,139.8,126.5z"/>
	<path d="M149.6,126.7v8.8h-2v-13.6h0.2l8.6,9v-8.8h2v13.6h-0.2L149.6,126.7z"/>
	<path d="M161.3,122.1h3.8c4.4,0,7,2.7,7,6.7c0,4-2.7,6.7-7,6.7h-3.8V122.1z M164.9,133.6c3.5,0,5-2,5-4.8s-1.5-4.8-5-4.8h-1.5v9.6
		H164.9z"/>
</g>
</svg>
