<?xml version="1.0" encoding="utf-8"?>
<!-- Generator: Adobe Illustrator 26.2.1, SVG Export Plug-In . SVG Version: 6.00 Build 0)  -->
<svg version="1.1" id="Layer_1" xmlns="http://www.w3.org/2000/svg" xmlns:xlink="http://www.w3.org/1999/xlink" x="0px" y="0px"
	 width="221.1px" height="180.2px" viewBox="0 0 221.1 180.2" style="enable-background:new 0 0 221.1 180.2;" xml:space="preserve"
	>
<style type="text/css">
	.st0{enable-background:new    ;}
</style> 
<g>
	<g>
		<g>
			<path d="M50.1,0c0,0-6.2,7.9-11,8.8S40.9-0.4,50.1,0z"/>
			<path d="M29.4,4.4c0,0,1.7,9.9-0.9,14.1S22.9,11,29.4,4.4z"/>
			<path d="M48.1,8.6c0,0-10,0.5-13.6,4S43.1,16.5,48.1,8.6z"/>
			<path d="M16,22.5c0,0,3.4,9.5,1.6,14S10.7,30.1,16,22.5z"/>
			<path d="M3.5,41c0,0,8.1,7.6,8.5,13C12.5,59.4,2.1,51.1,3.5,41z"/>
			<path d="M0.8,64.5c0,0,8.1,7.6,8.5,13S-0.7,74.6,0.8,64.5z"/>
			<path d="M0,88.2c0,0,9.4,5.4,11,10.3C12.6,103.5,0.8,98,0,88.2z"/>
			<path d="M1.3,109.9c0,0,10.9,2.2,14,6.6C18.4,120.8,5.2,119.2,1.3,109.9z"/>
			<path d="M7.5,134.5c0,0,11.4-3.2,16.5-0.7C29.2,136.4,15.8,141.4,7.5,134.5z"/>
			<path d="M19.5,154.4c0,0,12.6-5.5,18.8-3.3C44.5,153.3,29.8,161.1,19.5,154.4z"/>
			<path d="M37,170.9c0,0,10.9-8.4,17.4-7.8S48.6,174.9,37,170.9z"/>
			<path d="M56.1,178.6c0,0,10.9-6.2,16.8-4.8C78.7,175.2,66.1,183.7,56.1,178.6z"/>
			<path d="M37.1,23.7c0,0-10,0.5-13.6,4S32.1,31.5,37.1,23.7z"/>
			<path d="M27.4,38.5c0,0-9.5,3.3-11.9,7.6S24.8,47.5,27.4,38.5z"/>
			<path d="M26.1,114c0,0-4.9,10-3.4,15.3S31.1,123.1,26.1,114z"/>
			<path d="M61,149.4c0,0-1.6,12.6,1.9,18.1C66.4,173.1,69.6,158.3,61,149.4z"/>
			<path d="M35.7,128.4c0,0-3.4,12.1-0.7,17.3C37.8,150.9,43.1,136.5,35.7,128.4z"/>
			<path d="M48.8,139.9c0,0-3.3,13-0.3,18.5C51.5,163.8,56.8,148.4,48.8,139.9z"/>
			<path d="M20.3,56.6c0,0-8.1,6-9.1,10.8S20.5,65.9,20.3,56.6z"/>
			<path d="M20.7,93.7c0,0-5.5,8.5-5.4,14.7C15.3,114.5,22.5,105.2,20.7,93.7z"/>
			<path d="M17.2,75.6c0,0-6.6,7.6-6.6,12.5S19.4,84.7,17.2,75.6z"/>
			<path d="M84.4,174.2c-32.3-7.7-73.2-38.9-72.9-95.1C11.7,43,27.8,20.1,40.7,6C25.8,19.7,9.9,37.9,8.8,79
				c-1.6,56.1,41.1,94.2,73.9,97.9C82.7,176.9,88.2,175.2,84.4,174.2z"/>
		</g>
		<g>
			<path d="M171,0c0,0,6.2,7.9,11,8.8S180.2-0.4,171,0z"/>
			<path d="M191.6,4.4c0,0-1.7,9.9,0.9,14.1S198.2,11,191.6,4.4z"/>
			<path d="M173,8.6c0,0,10,0.5,13.6,4S178,16.5,173,8.6z"/>
			<path d="M205.1,22.5c0,0-3.4,9.5-1.6,14S210.4,30.1,205.1,22.5z"/>
			<path d="M217.6,41c0,0-8.1,7.6-8.5,13C208.6,59.4,219,51.1,217.6,41z"/>
			<path d="M220.3,64.5c0,0-8.1,7.6-8.5,13S221.7,74.6,220.3,64.5z"/>
			<path d="M221.1,88.2c0,0-9.4,5.4-11,10.3C208.5,103.5,220.3,98,221.1,88.2z"/>
			<path d="M219.8,109.9c0,0-10.9,2.2-14,6.6C202.6,120.8,215.9,119.2,219.8,109.9z"/>
			<path d="M213.5,134.5c0,0-11.4-3.2-16.5-0.7C191.9,136.4,205.3,141.4,213.5,134.5z"/>
			<path d="M201.6,154.4c0,0-12.6-5.5-18.8-3.3C176.6,153.3,191.3,161.1,201.6,154.4z"/>
			<path d="M184.1,170.9c0,0-10.9-8.4-17.4-7.8S172.5,174.9,184.1,170.9z"/>
			<path d="M165,178.6c0,0-10.9-6.2-16.8-4.8C142.4,175.2,155,183.7,165,178.6z"/>
			<path d="M184,23.7c0,0,10,0.5,13.6,4S188.9,31.5,184,23.7z"/>
			<path d="M193.7,38.5c0,0,9.5,3.3,11.9,7.6C208,50.5,196.2,47.5,193.7,38.5z"/>
			<path d="M194.9,114c0,0,4.9,10,3.4,15.3C196.9,134.6,190,123.1,194.9,114z"/>
			<path d="M160.1,149.4c0,0,1.6,12.6-1.9,18.1C154.7,173.1,151.5,158.3,160.1,149.4z"/>
			<path d="M185.3,128.4c0,0,3.4,12.1,0.7,17.3S178,136.5,185.3,128.4z"/>
			<path d="M172.3,139.9c0,0,3.3,13,0.3,18.5C169.6,163.8,164.3,148.4,172.3,139.9z"/>
			<path d="M200.8,56.6c0,0,8.1,6,9.1,10.8C210.9,72.3,200.6,65.9,200.8,56.6z"/>
			<path d="M200.4,93.7c0,0,5.5,8.5,5.4,14.7S198.5,105.2,200.4,93.7z"/>
			<path d="M203.8,75.6c0,0,6.6,7.6,6.6,12.5S201.7,84.7,203.8,75.6z"/>
			<path d="M136.7,174.2c32.3-7.7,73.2-38.9,72.9-95.1c-0.2-36.2-16.3-59-29.1-73.1c14.8,13.7,30.7,31.9,31.9,73
				c1.6,56.1-41.1,94.2-73.9,97.9C138.4,176.9,132.9,175.2,136.7,174.2z"/>
		</g>
	</g>
	<g class="st0">
		<path d="M71.1,22.3h9.2c5.2,0,7.6,2.9,7.6,6.6c0,2.3-1.2,4-3.1,4.9c3,0.9,4.9,3.2,4.9,6.5c0,4.4-2.8,7.8-8.7,7.8h-9.8V22.3z
			 M80,32.4c2.8,0,3.8-1.3,3.8-3.4c0-2-0.9-3.2-3.8-3.2h-4.9v6.6H80z M80.7,44.6c3.6,0,4.8-1.8,4.8-4.4s-1.4-4.5-5-4.5h-5.4v8.9
			H80.7z"/>
		<path d="M93.6,22.3h16.4v3.6H97.7v10.7h11v3.5h-11v4.4h12.9v3.6h-17V22.3z"/>
		<path d="M116.8,41.3c1.2,2.3,3.2,3.5,5.8,3.5c2.7,0,4.6-1.3,4.6-3.4c0-2.4-1.8-3.3-4.1-4.3l-1.8-0.8c-3.8-1.7-6.4-3.6-6.4-7.7
			c0-4,2.9-6.7,7.2-6.7c3.3,0,5.7,1.3,7.4,4.1l-3.1,2c-1-1.7-2.3-2.5-4.2-2.5c-2.1,0-3.3,1.2-3.3,3c0,2.1,1.3,2.8,4.1,4.1l1.8,0.8
			c3.9,1.7,6.5,3.5,6.5,7.9c0,4.7-3.6,7.1-8.5,7.1c-4.4,0-7.6-2.1-9.3-5.4L116.8,41.3z"/>
		<path d="M140.2,25.9h-7.7v-3.6h19.4v3.6h-7.7v22.2h-4.1V25.9z"/>
	</g>
	<g class="st0">
		<path d="M73.8,65.9c0-7.6,5.8-13.3,13.2-13.3c4.8,0,8.1,1.9,10.3,5l-3.1,2.2c-1.7-2.3-3.9-3.5-7.3-3.5c-5.1,0-8.8,4.1-8.8,9.6
			c0,5.6,3.8,9.6,9,9.6c3.3,0,5.8-1.3,7.7-3.8l3.2,2.2c-2.7,3.5-6,5.3-11.1,5.3C79.5,79.2,73.8,73.5,73.8,65.9z"/>
		<path d="M103.7,78.8h-4.1L111,52.5h0.2l11.4,26.4h-4.3l-1.5-3.6c0,0-11.5,0-11.5,0L103.7,78.8z M111,61.4l-4.3,10.2h8.5
			C115.3,71.6,111,61.4,111,61.4z"/>
		<path d="M130,61.8v17h-3.8V52.6h0.3L143,70V53h3.8v26.2h-0.3L130,61.8z"/>
	</g>
	<g class="st0">
		<path d="M48.6,83.8h7.3c8.4,0,13.6,5.3,13.6,12.9c0,7.6-5.1,12.9-13.6,12.9h-7.3V83.8z M55.6,106c6.7,0,9.6-3.8,9.6-9.3
			s-2.9-9.3-9.6-9.3h-3V106H55.6z"/>
		<path d="M73.8,83.8h16.4v3.6H77.9v10.7h11v3.5h-11v4.4h12.9v3.6h-17V83.8z"/>
		<path d="M97,102.8c1.2,2.3,3.2,3.5,5.8,3.5c2.7,0,4.6-1.3,4.6-3.4c0-2.4-1.8-3.3-4.1-4.3l-1.8-0.8c-3.8-1.7-6.4-3.6-6.4-7.7
			c0-4,2.9-6.7,7.2-6.7c3.3,0,5.7,1.3,7.4,4.1l-3.1,2c-1-1.7-2.3-2.5-4.2-2.5c-2.1,0-3.3,1.2-3.3,3c0,2.1,1.3,2.8,4.1,4.1l1.8,0.8
			c3.9,1.7,6.5,3.5,6.5,7.9c0,4.7-3.6,7.1-8.5,7.1c-4.4,0-7.6-2.1-9.3-5.4L97,102.8z"/>
		<path d="M115.8,83.8h4.1v25.8h-4.1V83.8z"/>
		<path d="M124.4,96.7c0-7.6,5.8-13.3,13.3-13.3c4.8,0,7.7,1.7,9.8,4.1l-2.8,2.7c-1.6-1.7-3.3-3.1-7.1-3.1c-5.2,0-8.9,4.1-8.9,9.6
			s3.7,9.6,9.6,9.6c2.8,0,4.8-0.6,6.3-1.6v-2.9h-6.9v-3.6h10.7v8.5c-2.2,1.8-5.2,3.4-10,3.4C130.3,110,124.4,104.3,124.4,96.7z"/>
		<path d="M156.9,92.6v17h-3.8V83.4h0.3l16.6,17.4v-17h3.8V110h-0.3L156.9,92.6z"/>
	</g>
	<g class="st0">
		<path d="M49.2,132c0.6,1.2,1.7,1.8,3,1.8c1.4,0,2.4-0.7,2.4-1.8c0-1.3-0.9-1.7-2.1-2.2l-0.9-0.4c-2-0.9-3.3-1.9-3.3-4
			c0-2,1.5-3.5,3.7-3.5c1.7,0,3,0.7,3.8,2.1l-1.6,1c-0.5-0.9-1.2-1.3-2.2-1.3c-1.1,0-1.7,0.6-1.7,1.6c0,1.1,0.6,1.5,2.1,2.1l0.9,0.4
			c2,0.9,3.4,1.8,3.4,4.1c0,2.5-1.9,3.7-4.4,3.7c-2.3,0-3.9-1.1-4.8-2.8L49.2,132z"/>
		<path d="M58.9,122.1h8.5v1.9H61v5.6h5.7v1.8H61v2.3h6.7v1.9h-8.8V122.1z"/>
		<path d="M70.2,122.1h2.1v11.5h5.9v1.9h-8V122.1z"/>
		<path d="M81.3,124h-4v-1.9h10.1v1.9h-4v11.5h-2.1V124z"/>
		<path d="M88,135.4L95,124h-6v-1.9h9.4v0.1l-7.1,11.4h6.9v1.9H88V135.4z"/>
		<path d="M100.6,122.1h8.5v1.9h-6.4v5.6h5.7v1.8h-5.7v2.3h6.7v1.9h-8.8V122.1z"/>
		<path d="M121.1,135.5h-2.5l-2.3-3.2c-0.3,0-0.6,0.1-1,0.1H114v3.2h-2.1v-13.4h3.4c3.7,0,5.7,2,5.7,5.1c0,2.1-0.9,3.7-2.7,4.5
			L121.1,135.5z M115.2,130.5c2.6,0,3.6-1.2,3.6-3.3c0-2-1.1-3.2-3.6-3.2H114v6.5H115.2z"/>
		<path d="M123.4,122.1h2.1v11.5h5.9v1.9h-8V122.1z"/>
		<path d="M134.6,135.5h-2.1l5.9-13.7h0.1l5.9,13.7h-2.2l-0.8-1.9c0,0-6,0-6,0L134.6,135.5z M138.4,126.5l-2.2,5.3h4.4
			C140.6,131.8,138.4,126.5,138.4,126.5z"/>
		<path d="M148.2,126.7v8.8h-2v-13.6h0.2l8.6,9v-8.8h2v13.6h-0.2L148.2,126.7z"/>
		<path d="M159.9,122.1h3.8c4.4,0,7,2.7,7,6.7c0,4-2.7,6.7-7,6.7h-3.8V122.1z M163.5,133.6c3.5,0,5-2,5-4.8c0-2.8-1.5-4.8-5-4.8H162
			v9.6H163.5z"/>
	</g>
</g>
</svg>
