<?xml version="1.0" encoding="utf-8"?>
<!-- Generator: Adobe Illustrator 26.2.1, SVG Export Plug-In . SVG Version: 6.00 Build 0)  -->
<svg version="1.1" id="Layer_1" xmlns="http://www.w3.org/2000/svg" xmlns:xlink="http://www.w3.org/1999/xlink" x="0px" y="0px"
	 width="221.1px" height="185px" viewBox="0 0 221.1 185" style="enable-background:new 0 0 221.1 185;" xml:space="preserve">
<style type="text/css">
	.st0{enable-background:new    ;}
</style>
<g>
	<g>
		<path d="M50.1,0.1c0,0-6.2,7.9-11,8.8S40.9-0.3,50.1,0.1z"/>
		<path d="M29.4,4.6c0,0,1.7,9.9-0.9,14.1S22.9,11.1,29.4,4.6z"/>
		<path d="M48.1,8.7c0,0-10,0.5-13.6,4S43.1,16.6,48.1,8.7z"/>
		<path d="M16,22.6c0,0,3.4,9.5,1.6,14S10.7,30.2,16,22.6z"/>
		<path d="M3.5,41.1c0,0,8.1,7.6,8.5,13C12.5,59.6,2.1,51.2,3.5,41.1z"/>
		<path d="M0.8,64.6c0,0,8.1,7.6,8.5,13C9.8,83.1-0.7,74.7,0.8,64.6z"/>
		<path d="M0,88.3c0,0,9.4,5.4,11,10.3S0.8,98.1,0,88.3z"/>
		<path d="M1.3,110c0,0,10.9,2.2,14,6.6S5.2,119.3,1.3,110z"/>
		<path d="M7.5,134.6c0,0,11.4-3.2,16.5-0.7C29.2,136.5,15.8,141.5,7.5,134.6z"/>
		<path d="M19.5,154.5c0,0,12.6-5.5,18.8-3.3S29.8,161.2,19.5,154.5z"/>
		<path d="M37,171c0,0,10.9-8.4,17.4-7.8S48.6,175,37,171z"/>
		<path d="M56.1,178.7c0,0,10.9-6.2,16.8-4.8S66.1,183.8,56.1,178.7z"/>
		<path d="M37.1,23.8c0,0-10,0.5-13.6,4S32.1,31.6,37.1,23.8z"/>
		<path d="M27.4,38.6c0,0-9.5,3.3-11.9,7.6S24.8,47.6,27.4,38.6z"/>
		<path d="M26.1,114.1c0,0-4.9,10-3.4,15.3C24.2,134.7,31.1,123.2,26.1,114.1z"/>
		<path d="M61,149.6c0,0-1.6,12.6,1.9,18.1C66.4,173.2,69.6,158.5,61,149.6z"/>
		<path d="M35.7,128.5c0,0-3.4,12.1-0.7,17.3C37.8,151,43.1,136.6,35.7,128.5z"/>
		<path d="M48.8,140c0,0-3.3,13-0.3,18.5C51.5,163.9,56.8,148.5,48.8,140z"/>
		<path d="M20.3,56.7c0,0-8.1,6-9.1,10.8C10.2,72.4,20.5,66,20.3,56.7z"/>
		<path d="M20.7,93.8c0,0-5.5,8.5-5.4,14.7C15.3,114.6,22.5,105.3,20.7,93.8z"/>
		<path d="M17.2,75.8c0,0-6.6,7.6-6.6,12.5C10.7,93.2,19.4,84.8,17.2,75.8z"/>
		<path d="M84.4,174.3c-32.3-7.7-73.2-38.9-72.9-95.1c0.2-36.2,16.3-59,29.1-73.1c-14.8,13.7-30.7,32-31.8,73
			c-1.6,56.1,41.1,94.2,73.9,97.9C82.7,177,88.2,175.3,84.4,174.3z"/>
	</g>
	<g>
		<path d="M171,0.1c0,0,6.2,7.9,11,8.8S180.2-0.3,171,0.1z"/>
		<path d="M191.6,4.6c0,0-1.7,9.9,0.9,14.1S198.2,11.1,191.6,4.6z"/>
		<path d="M173,8.7c0,0,10,0.5,13.6,4S178,16.6,173,8.7z"/>
		<path d="M205.1,22.6c0,0-3.4,9.5-1.6,14S210.4,30.2,205.1,22.6z"/>
		<path d="M217.6,41.1c0,0-8.1,7.6-8.5,13C208.6,59.6,219,51.2,217.6,41.1z"/>
		<path d="M220.3,64.6c0,0-8.1,7.6-8.5,13C211.3,83.1,221.7,74.7,220.3,64.6z"/>
		<path d="M221.1,88.3c0,0-9.4,5.4-11,10.3C208.5,103.6,220.3,98.1,221.1,88.3z"/>
		<path d="M219.8,110c0,0-10.9,2.2-14,6.6S215.9,119.3,219.8,110z"/>
		<path d="M213.5,134.6c0,0-11.4-3.2-16.5-0.7C191.9,136.5,205.3,141.5,213.5,134.6z"/>
		<path d="M201.6,154.5c0,0-12.6-5.5-18.8-3.3S191.3,161.2,201.6,154.5z"/>
		<path d="M184.1,171c0,0-10.9-8.4-17.4-7.8S172.5,175,184.1,171z"/>
		<path d="M165,178.7c0,0-10.9-6.2-16.8-4.8S155,183.8,165,178.7z"/>
		<path d="M184,23.8c0,0,10,0.5,13.6,4S188.9,31.6,184,23.8z"/>
		<path d="M193.7,38.6c0,0,9.5,3.3,11.9,7.6C208,50.6,196.2,47.6,193.7,38.6z"/>
		<path d="M194.9,114.1c0,0,4.9,10,3.4,15.3C196.9,134.7,190,123.2,194.9,114.1z"/>
		<path d="M160.1,149.6c0,0,1.6,12.6-1.9,18.1C154.7,173.2,151.5,158.5,160.1,149.6z"/>
		<path d="M185.3,128.5c0,0,3.4,12.1,0.7,17.3S178,136.6,185.3,128.5z"/>
		<path d="M172.3,140c0,0,3.3,13,0.3,18.5C169.6,163.9,164.3,148.5,172.3,140z"/>
		<path d="M200.8,56.7c0,0,8.1,6,9.1,10.8C210.9,72.4,200.6,66,200.8,56.7z"/>
		<path d="M200.4,93.8c0,0,5.5,8.5,5.4,14.7S198.5,105.3,200.4,93.8z"/>
		<path d="M203.8,75.8c0,0,6.6,7.6,6.6,12.5C210.4,93.2,201.7,84.8,203.8,75.8z"/>
		<path d="M136.7,174.3c32.3-7.7,73.2-38.9,72.9-95.1c-0.2-36.2-16.3-59-29.1-73.1c14.8,13.7,30.7,31.9,31.9,73
			c1.6,56.1-41.1,94.2-73.9,97.9C138.4,177,132.9,175.3,136.7,174.3z"/>
	</g>
</g>
<g class="st0">
	<path d="M79.7,0.2h7c3.9,0,5.8,2.2,5.8,5c0,1.7-0.9,3-2.4,3.7c2.3,0.7,3.8,2.4,3.8,5c0,3.3-2.1,5.9-6.6,5.9h-7.5L79.7,0.2L79.7,0.2
		z M86.5,8c2.1,0,2.9-1,2.9-2.6c0-1.5-0.7-2.5-2.9-2.5h-3.7V8H86.5z M87,17.3c2.7,0,3.7-1.4,3.7-3.4s-1.1-3.4-3.8-3.4h-4.1v6.8H87z"
		/>
	<path d="M96.9,0.2h12.6V3H100v8.2h8.4v2.7H100v3.3h9.9V20h-13V0.2z"/>
	<path d="M114.6,14.8c0.9,1.7,2.4,2.7,4.5,2.7c2.1,0,3.5-1,3.5-2.6c0-1.9-1.4-2.5-3.1-3.3l-1.4-0.6c-2.9-1.3-4.9-2.8-4.9-5.9
		c0-3,2.2-5.1,5.5-5.1c2.5,0,4.4,1,5.6,3.1l-2.4,1.5c-0.8-1.3-1.7-1.9-3.2-1.9c-1.6,0-2.5,0.9-2.5,2.3c0,1.6,1,2.2,3.1,3.1l1.4,0.6
		c3,1.3,5,2.7,5,6c0,3.6-2.8,5.5-6.5,5.5c-3.3,0-5.8-1.6-7.1-4.1L114.6,14.8z"/>
	<path d="M132.5,3h-5.9V0.2h14.8V3h-5.9v17h-3.1V3H132.5z"/>
</g>
<g class="st0">
	<path d="M59.8,43.5h-3.7l-3.4-4.8c-0.4,0.1-0.9,0.1-1.4,0.1h-1.9v4.7h-3.1V23.7h5c5.4,0,8.4,3,8.4,7.5c0,3-1.4,5.4-3.9,6.6
		L59.8,43.5z M51.2,36.1c3.8,0,5.3-1.8,5.3-4.8s-1.6-4.8-5.3-4.8h-1.8v9.6H51.2z"/>
	<path d="M63.3,23.7h12.6v2.8h-9.5v8.2h8.4v2.7h-8.4v3.3h9.9v2.8h-13V23.7z"/>
	<path d="M81.5,43.5h-3.1L87,23.3h0.2l8.7,20.1h-3.3l-1.1-2.8h-8.8L81.5,43.5z M87.1,30.1l-3.3,7.8h6.5L87.1,30.1z"/>
	<path d="M98.6,23.7h5.6c6.4,0,10.4,4,10.4,9.9c0,5.8-3.9,9.9-10.4,9.9h-5.6V23.7z M104,40.7c5.1,0,7.3-2.9,7.3-7.1
		s-2.2-7.1-7.3-7.1h-2.3v14.2H104z"/>
	<path d="M114.6,23.7h3.4l5.6,10.3l5.5-10.3h3.2L125,37.1v6.3h-3.1v-6.3L114.6,23.7z"/>
	<path d="M144.8,26.5h-5.9v-2.8h14.8v2.8h-5.9v17h-3.1L144.8,26.5L144.8,26.5z"/>
	<path d="M154.5,33.6c0-5.8,4.5-10.1,10.2-10.1s10.2,4.3,10.2,10.1s-4.5,10.1-10.2,10.1S154.5,39.4,154.5,33.6z M171.7,33.6
		c0-4.2-2.9-7.3-7-7.3s-7,3.1-7,7.3s2.9,7.3,7,7.3S171.7,37.8,171.7,33.6z"/>
</g>
<g class="st0">
	<path d="M70.9,47.1h5.6c6.4,0,10.4,4,10.4,9.9c0,5.8-3.9,9.9-10.4,9.9h-5.6V47.1z M76.4,64.1c5.1,0,7.3-2.9,7.3-7.1
		s-2.2-7.1-7.3-7.1h-2.3v14.2H76.4z"/>
	<path d="M103.8,66.9h-3.7l-3.4-4.8c-0.4,0.1-0.9,0.1-1.4,0.1h-1.9v4.7h-3.1V47.1h5.1c5.4,0,8.4,3,8.4,7.5c0,3-1.4,5.4-3.9,6.6
		L103.8,66.9z M95.1,59.5c3.8,0,5.3-1.8,5.3-4.8s-1.6-4.8-5.3-4.8h-1.8v9.6H95.1z"/>
	<path d="M107.4,47.1h3.1v19.7h-3.1V47.1z"/>
	<path d="M117.8,53.9v13h-2.9v-20h0.2l12.7,13.3v-13h2.9v20h-0.2L117.8,53.9z"/>
	<path d="M145.7,47.1h3.5l-7,8.9l8,10.9h-3.8l-6.3-8.5l-2.2,2.7V67h-3.1V47.1h3.1v9.8L145.7,47.1z"/>
</g>
<g class="st0">
	<path d="M42.3,70.6h7c3.9,0,5.8,2.2,5.8,5c0,1.7-0.9,3-2.4,3.7c2.3,0.7,3.8,2.4,3.8,5c0,3.3-2.1,5.9-6.6,5.9h-7.5L42.3,70.6
		L42.3,70.6z M49.1,78.4c2.1,0,2.9-1,2.9-2.6c0-1.5-0.7-2.5-2.9-2.5h-3.7v5.1H49.1z M49.6,87.7c2.7,0,3.7-1.4,3.7-3.4
		s-1.1-3.4-3.8-3.4h-4.1v6.8H49.6z"/>
	<path d="M59.5,70.6h12.6v2.8h-9.5v8.2H71v2.7h-8.4v3.3h9.9v2.8h-13C59.5,90.4,59.5,70.6,59.5,70.6z"/>
	<path d="M74.1,70.6h3.3L83,83.9l5.5-13.3h3.1l-8.5,20h-0.2L74.1,70.6z"/>
	<path d="M94.4,70.6h12.6v2.8h-9.5v8.2h8.4v2.7h-8.4v3.3h9.9v2.8h-13V70.6z"/>
	<path d="M124.5,90.4h-3.7l-3.4-4.8c-0.4,0.1-0.9,0.1-1.4,0.1h-1.9v4.7H111V70.6h5c5.4,0,8.4,3,8.4,7.5c0,3-1.4,5.4-3.9,6.6
		L124.5,90.4z M115.9,83c3.8,0,5.3-1.8,5.3-4.8s-1.6-4.8-5.3-4.8h-1.8V83C114.1,83,115.9,83,115.9,83z"/>
	<path d="M129.3,90.4h-3.1l8.6-20.1h0.2l8.7,20.1h-3.3l-1.1-2.8h-8.8L129.3,90.4z M134.9,77l-3.3,7.8h6.5L134.9,77z"/>
	<path d="M144,80.5c0-5.8,4.5-10.1,10.1-10.1c3.7,0,5.9,1.3,7.5,3.1l-2.1,2c-1.2-1.3-2.6-2.4-5.4-2.4c-4,0-6.8,3.1-6.8,7.3
		c0,4.2,2.8,7.3,7.3,7.3c2.1,0,3.7-0.5,4.8-1.2v-2.2h-5.3v-2.8h8.2V88c-1.7,1.4-3.9,2.6-7.7,2.6C148.5,90.6,144,86.3,144,80.5z"/>
	<path d="M165.9,70.6h12.6v2.8H169v8.2h8.4v2.7H169v3.3h9.9v2.8h-13V70.6z"/>
</g>
<g>
	<g class="st0">
		<path d="M47.1,105h-4v-1.9h10.1v1.9h-4v11.5h-2.1C47.1,116.5,47.1,105,47.1,105z"/>
		<path d="M63.6,103.1h2.1v13.4h-2.1v-4.1h-6.4v4.1h-2.1v-13.4h2.1v7.4h6.4C63.6,110.5,63.6,103.1,63.6,103.1z"/>
		<path d="M68.7,103.1h8.5v1.9h-6.4v5.6h5.7v1.8h-5.7v2.3h6.7v1.9h-8.8C68.7,116.6,68.7,103.1,68.7,103.1z"/>
	</g>
	<g class="st0">
		<path d="M84.7,103.1H93v1.9h-6.2v5.6h5.7v1.9h-5.7v4.1h-2.1C84.7,116.6,84.7,103.1,84.7,103.1z"/>
		<path d="M95.4,103.1h2.1v13.4h-2.1V103.1z"/>
		<path d="M100.5,103.1h8.3v1.9h-6.2v5.6h5.7v1.9h-5.7v4.1h-2.1C100.5,116.6,100.5,103.1,100.5,103.1z"/>
		<path d="M114.1,105h-4v-1.9h10.1v1.9h-4v11.5h-2.1V105z"/>
	</g>
	<g class="st0">
		<path d="M121.1,103.1h2.3l3.8,7l3.7-7h2.2l-4.9,9.1v4.3h-2.1v-4.2L121.1,103.1z"/>
	</g>
	<g class="st0">
		<path d="M136.1,103.1h4.7c2.7,0,3.9,1.5,3.9,3.4c0,1.2-0.6,2-1.6,2.5c1.6,0.5,2.6,1.7,2.6,3.4c0,2.3-1.4,4-4.5,4h-5.1L136.1,103.1
			L136.1,103.1z M140.7,108.4c1.5,0,1.9-0.7,1.9-1.8c0-1-0.5-1.7-1.9-1.7h-2.5v3.4L140.7,108.4L140.7,108.4z M141.1,114.7
			c1.9,0,2.5-0.9,2.5-2.3s-0.7-2.3-2.6-2.3h-2.8v4.6C138.2,114.7,141.1,114.7,141.1,114.7z"/>
		<path d="M147.8,103.1h8.5v1.9h-6.4v5.6h5.7v1.8h-5.7v2.3h6.7v1.9h-8.8V103.1z"/>
		<path d="M159.8,113c0.6,1.2,1.7,1.8,3,1.8c1.4,0,2.4-0.7,2.4-1.8c0-1.3-0.9-1.7-2.1-2.2l-0.9-0.4c-2-0.9-3.3-1.9-3.3-4
			c0-2,1.5-3.5,3.7-3.5c1.7,0,3,0.7,3.8,2.1l-1.6,1c-0.5-0.9-1.2-1.3-2.2-1.3c-1.1,0-1.7,0.6-1.7,1.6c0,1.1,0.6,1.5,2.1,2.1l0.9,0.4
			c2,0.9,3.4,1.8,3.4,4.1c0,2.5-1.9,3.7-4.4,3.7c-2.3,0-3.9-1.1-4.8-2.8L159.8,113z"/>
		<path d="M171.9,105h-4v-1.9H178v1.9h-4v11.5h-2.1V105z"/>
	</g>
</g>
<g class="st0">
	<path d="M51.4,128.5c0-4,3.1-6.9,6.9-6.9c2.5,0,4.3,1,5.5,2.7l-1.6,1.2c-0.8-1.2-2-2-3.9-2c-2.7,0-4.7,2.1-4.7,5c0,2.8,1.9,5,4.7,5
		c2.3,0,3.6-1.1,4-2.4h-3.8v-1.8h6.2c-0.1,3.9-2.6,6.1-6.5,6.1C54.5,135.4,51.4,132.5,51.4,128.5z"/>
	<path d="M66.4,128.5c0-4,3.1-6.9,6.9-6.9s6.9,2.9,6.9,6.9s-3.1,6.9-6.9,6.9C69.4,135.4,66.4,132.5,66.4,128.5z M78,128.5
		c0-2.8-1.9-5-4.7-5s-4.7,2.1-4.7,5c0,2.8,1.9,5,4.7,5C76,133.5,78,131.4,78,128.5z"/>
	<path d="M82.4,121.8h2.1v11.5h6v1.9h-8L82.4,121.8L82.4,121.8z"/>
	<path d="M92.6,121.8h3.8c4.4,0,7,2.7,7,6.7s-2.7,6.7-7,6.7h-3.8V121.8z M96.2,133.4c3.5,0,5-2,5-4.8s-1.5-4.8-5-4.8h-1.6v9.6H96.2z
		"/>
	<path d="M110.6,121.6L110.6,121.6l5.4,8.2l5.3-8.2h0.1l1.5,13.7h-2L120,127l-4,6.2h-0.1l-4-6.2l-0.9,8.3h-1.9L110.6,121.6z"/>
	<path d="M125.6,121.8h8.5v1.9h-6.4v5.6h5.7v1.8h-5.7v2.3h6.7v1.9h-8.8C125.6,135.3,125.6,121.8,125.6,121.8z"/>
	<path d="M136.9,121.8h3.8c4.4,0,7,2.7,7,6.7s-2.7,6.7-7,6.7h-3.8V121.8z M140.6,133.4c3.5,0,5-2,5-4.8s-1.5-4.8-5-4.8H139v9.6
		H140.6z"/>
	<path d="M150.1,135.2H148l5.9-13.7h0.1l5.9,13.7h-2.2l-0.8-1.9h-6L150.1,135.2z M153.9,126.2l-2.2,5.3h4.4
		C156.1,131.5,153.9,126.2,153.9,126.2z"/>
	<path d="M161.7,121.8h2.1v11.5h5.9v1.9h-8V121.8z"/>
</g>
</svg>
