<?xml version="1.0" encoding="utf-8"?>
<!-- Generator: Adobe Illustrator 26.2.1, SVG Export Plug-In . SVG Version: 6.00 Build 0)  -->
<svg version="1.1" id="Layer_1" xmlns="http://www.w3.org/2000/svg" xmlns:xlink="http://www.w3.org/1999/xlink" x="0px" y="0px"
	 width="221.1px" height="180.2px" viewBox="0 0 221.1 180.2" style="enable-background:new 0 0 221.1 180.2;" xml:space="preserve"
	>
<style type="text/css">
	.st0{enable-background:new    ;}
</style>
<g>
	<g>
		<g>
			<path d="M50.1,0c0,0-6.2,7.9-11,8.8S40.9-0.4,50.1,0z"/>
			<path d="M29.4,4.4c0,0,1.7,9.9-0.9,14.1S22.9,11,29.4,4.4z"/>
			<path d="M48.1,8.6c0,0-10,0.5-13.6,4S43.1,16.5,48.1,8.6z"/>
			<path d="M16,22.5c0,0,3.4,9.5,1.6,14S10.7,30.1,16,22.5z"/>
			<path d="M3.5,41c0,0,8.1,7.6,8.5,13C12.5,59.4,2.1,51.1,3.5,41z"/>
			<path d="M0.8,64.5c0,0,8.1,7.6,8.5,13S-0.7,74.6,0.8,64.5z"/>
			<path d="M0,88.2c0,0,9.4,5.4,11,10.3C12.6,103.5,0.8,98,0,88.2z"/>
			<path d="M1.3,109.9c0,0,10.9,2.2,14,6.6C18.4,120.8,5.2,119.2,1.3,109.9z"/>
			<path d="M7.5,134.5c0,0,11.4-3.2,16.5-0.7C29.2,136.4,15.8,141.4,7.5,134.5z"/>
			<path d="M19.5,154.4c0,0,12.6-5.5,18.8-3.3C44.5,153.3,29.8,161.1,19.5,154.4z"/>
			<path d="M37,170.9c0,0,10.9-8.4,17.4-7.8S48.6,174.9,37,170.9z"/>
			<path d="M56.1,178.6c0,0,10.9-6.2,16.8-4.8C78.7,175.2,66.1,183.7,56.1,178.6z"/>
			<path d="M37.1,23.7c0,0-10,0.5-13.6,4S32.1,31.5,37.1,23.7z"/>
			<path d="M27.4,38.5c0,0-9.5,3.3-11.9,7.6S24.8,47.5,27.4,38.5z"/>
			<path d="M26.1,114c0,0-4.9,10-3.4,15.3S31.1,123.1,26.1,114z"/>
			<path d="M61,149.4c0,0-1.6,12.6,1.9,18.1C66.4,173.1,69.6,158.3,61,149.4z"/>
			<path d="M35.7,128.4c0,0-3.4,12.1-0.7,17.3C37.8,150.9,43.1,136.5,35.7,128.4z"/>
			<path d="M48.8,139.9c0,0-3.3,13-0.3,18.5C51.5,163.8,56.8,148.4,48.8,139.9z"/>
			<path d="M20.3,56.6c0,0-8.1,6-9.1,10.8S20.5,65.9,20.3,56.6z"/>
			<path d="M20.7,93.7c0,0-5.5,8.5-5.4,14.7C15.3,114.5,22.5,105.2,20.7,93.7z"/>
			<path d="M17.2,75.6c0,0-6.6,7.6-6.6,12.5S19.4,84.7,17.2,75.6z"/>
			<path d="M84.4,174.2c-32.3-7.7-73.2-38.9-72.9-95.1C11.7,43,27.8,20.1,40.7,6C25.8,19.7,9.9,37.9,8.8,79
				c-1.6,56.1,41.1,94.2,73.9,97.9C82.7,176.9,88.2,175.2,84.4,174.2z"/>
		</g>
		<g>
			<path d="M171,0c0,0,6.2,7.9,11,8.8S180.2-0.4,171,0z"/>
			<path d="M191.6,4.4c0,0-1.7,9.9,0.9,14.1S198.2,11,191.6,4.4z"/>
			<path d="M173,8.6c0,0,10,0.5,13.6,4S178,16.5,173,8.6z"/>
			<path d="M205.1,22.5c0,0-3.4,9.5-1.6,14S210.4,30.1,205.1,22.5z"/>
			<path d="M217.6,41c0,0-8.1,7.6-8.5,13C208.6,59.4,219,51.1,217.6,41z"/>
			<path d="M220.3,64.5c0,0-8.1,7.6-8.5,13S221.7,74.6,220.3,64.5z"/>
			<path d="M221.1,88.2c0,0-9.4,5.4-11,10.3C208.5,103.5,220.3,98,221.1,88.2z"/>
			<path d="M219.8,109.9c0,0-10.9,2.2-14,6.6C202.6,120.8,215.9,119.2,219.8,109.9z"/>
			<path d="M213.5,134.5c0,0-11.4-3.2-16.5-0.7C191.9,136.4,205.3,141.4,213.5,134.5z"/>
			<path d="M201.6,154.4c0,0-12.6-5.5-18.8-3.3C176.6,153.3,191.3,161.1,201.6,154.4z"/>
			<path d="M184.1,170.9c0,0-10.9-8.4-17.4-7.8S172.5,174.9,184.1,170.9z"/>
			<path d="M165,178.6c0,0-10.9-6.2-16.8-4.8C142.4,175.2,155,183.7,165,178.6z"/>
			<path d="M184,23.7c0,0,10,0.5,13.6,4S188.9,31.5,184,23.7z"/>
			<path d="M193.7,38.5c0,0,9.5,3.3,11.9,7.6C208,50.5,196.2,47.5,193.7,38.5z"/>
			<path d="M194.9,114c0,0,4.9,10,3.4,15.3C196.9,134.6,190,123.1,194.9,114z"/>
			<path d="M160.1,149.4c0,0,1.6,12.6-1.9,18.1C154.7,173.1,151.5,158.3,160.1,149.4z"/>
			<path d="M185.3,128.4c0,0,3.4,12.1,0.7,17.3S178,136.5,185.3,128.4z"/>
			<path d="M172.3,139.9c0,0,3.3,13,0.3,18.5C169.6,163.8,164.3,148.4,172.3,139.9z"/>
			<path d="M200.8,56.6c0,0,8.1,6,9.1,10.8C210.9,72.3,200.6,65.9,200.8,56.6z"/>
			<path d="M200.4,93.7c0,0,5.5,8.5,5.4,14.7S198.5,105.2,200.4,93.7z"/>
			<path d="M203.8,75.6c0,0,6.6,7.6,6.6,12.5S201.7,84.7,203.8,75.6z"/>
			<path d="M136.7,174.2c32.3-7.7,73.2-38.9,72.9-95.1c-0.2-36.2-16.3-59-29.1-73.1c14.8,13.7,30.7,31.9,31.9,73
				c1.6,56.1-41.1,94.2-73.9,97.9C138.4,176.9,132.9,175.2,136.7,174.2z"/>
		</g>
	</g>
	<g class="st0">
		<path d="M61.6,29.4c0-7.6,5.8-13.3,13.3-13.3c4.8,0,7.7,1.7,9.8,4.1l-2.8,2.7c-1.6-1.7-3.3-3.1-7.1-3.1c-5.2,0-8.9,4.1-8.9,9.6
			s3.7,9.6,9.6,9.6c2.8,0,4.8-0.6,6.3-1.6v-2.9h-6.9v-3.6h10.7v8.5c-2.2,1.8-5.2,3.4-10,3.4C67.5,42.7,61.6,37.1,61.6,29.4z"/>
		<path d="M89.1,29.4c0-7.6,5.9-13.3,13.3-13.3c7.4,0,13.3,5.6,13.3,13.3s-5.9,13.3-13.3,13.3C95,42.7,89.1,37.1,89.1,29.4z
			 M111.5,29.4c0-5.5-3.8-9.6-9.1-9.6s-9.1,4.1-9.1,9.6s3.8,9.6,9.1,9.6S111.5,34.9,111.5,29.4z"/>
		<path d="M120.1,16.5h4.1v22.2h11.4v3.6h-15.5V16.5z"/>
		<path d="M139.7,16.5h7.3c8.4,0,13.6,5.3,13.6,12.9s-5.1,12.9-13.6,12.9h-7.3V16.5z M146.8,38.7c6.7,0,9.6-3.8,9.6-9.3
			s-2.9-9.3-9.6-9.3h-3v18.6H146.8z"/>
	</g>
	<g class="st0">
		<path d="M52.9,46.7h0.2l12.6,14.5l12.5-14.5h0.2V73h-3.8V56.3l-8.8,10.5h-0.2l-8.8-10.5V73h-3.8V46.7z"/>
		<path d="M84,47.2h16.4v3.6H88v10.7h11v3.5H88v4.4h12.9V73H84V47.2z"/>
		<path d="M105.7,47.2h7.3c8.4,0,13.6,5.3,13.6,12.9S121.4,73,113,73h-7.3V47.2z M112.7,69.4c6.7,0,9.6-3.8,9.6-9.3
			s-2.9-9.3-9.6-9.3h-3v18.6H112.7z"/>
		<path d="M131.1,73H127l11.3-26.4h0.2L149.9,73h-4.3l-1.5-3.6c0,0-11.5,0-11.5,0L131.1,73z M138.4,55.6l-4.3,10.2h8.5
			C142.7,65.8,138.4,55.6,138.4,55.6z"/>
		<path d="M153.5,47.2h4.1v22.2H169V73h-15.5V47.2z"/>
	</g>
	<g class="st0">
		<path d="M38.8,94.1c0.6,1.2,1.7,1.8,3,1.8c1.4,0,2.4-0.7,2.4-1.8c0-1.3-0.9-1.7-2.1-2.2l-0.9-0.4c-2-0.9-3.3-1.9-3.3-4
			c0-2,1.5-3.5,3.7-3.5c1.7,0,3,0.7,3.8,2.1l-1.6,1c-0.5-0.9-1.2-1.3-2.2-1.3c-1.1,0-1.7,0.6-1.7,1.6c0,1.1,0.6,1.5,2.1,2.1l0.9,0.4
			c2,0.9,3.4,1.8,3.4,4.1c0,2.5-1.9,3.7-4.4,3.7c-2.3,0-3.9-1.1-4.8-2.8L38.8,94.1z"/>
		<path d="M49.4,97.6h-2.1l5.9-13.7h0.1l5.9,13.7h-2.2l-0.8-1.9c0,0-6,0-6,0L49.4,97.6z M53.2,88.6l-2.2,5.3h4.4
			C55.4,93.8,53.2,88.6,53.2,88.6z"/>
		<path d="M63,88.8v8.8h-2V84h0.2l8.6,9v-8.8h2v13.6h-0.2L63,88.8z"/>
		<path d="M78.2,84.2h8.3v1.9h-6.2v5.6H86v1.9h-5.7v4.1h-2.1V84.2z"/>
		<path d="M98,97.6h-2.5l-2.3-3.2c-0.3,0-0.6,0.1-1,0.1h-1.3v3.2h-2.1V84.2h3.4c3.7,0,5.7,2,5.7,5.1c0,2.1-0.9,3.7-2.7,4.5L98,97.6z
			 M92.2,92.6c2.6,0,3.6-1.2,3.6-3.3c0-2-1.1-3.2-3.6-3.2h-1.2v6.5H92.2z"/>
		<path d="M101.2,97.6h-2.1l5.9-13.7h0.1l5.9,13.7h-2.2l-0.8-1.9c0,0-6,0-6,0L101.2,97.6z M105,88.6l-2.2,5.3h4.4
			C107.2,93.8,105,88.6,105,88.6z"/>
		<path d="M114.8,88.8v8.8h-2V84h0.2l8.6,9v-8.8h2v13.6h-0.2L114.8,88.8z"/>
		<path d="M125.8,90.9c0-4,3-6.9,6.8-6.9c2.5,0,4.2,1,5.4,2.6l-1.6,1.1c-0.9-1.2-2-1.8-3.8-1.8c-2.7,0-4.6,2.1-4.6,5
			c0,2.9,2,5,4.7,5c1.7,0,3-0.6,4-1.9l1.6,1.1c-1.4,1.8-3.1,2.7-5.7,2.7C128.8,97.8,125.8,94.9,125.8,90.9z"/>
		<path d="M140.5,84.2h2.1v13.4h-2.1V84.2z"/>
		<path d="M146.3,94.1c0.6,1.2,1.7,1.8,3,1.8c1.4,0,2.4-0.7,2.4-1.8c0-1.3-0.9-1.7-2.1-2.2l-0.9-0.4c-2-0.9-3.3-1.9-3.3-4
			c0-2,1.5-3.5,3.7-3.5c1.7,0,3,0.7,3.8,2.1l-1.6,1c-0.5-0.9-1.2-1.3-2.2-1.3c-1.1,0-1.7,0.6-1.7,1.6c0,1.1,0.6,1.5,2.1,2.1l0.9,0.4
			c2,0.9,3.4,1.8,3.4,4.1c0,2.5-1.9,3.7-4.4,3.7c-2.3,0-3.9-1.1-4.8-2.8L146.3,94.1z"/>
		<path d="M155.3,90.9c0-4,3-6.9,6.8-6.9c2.5,0,4.2,1,5.4,2.6l-1.6,1.1c-0.9-1.2-2-1.8-3.8-1.8c-2.7,0-4.6,2.1-4.6,5
			c0,2.9,2,5,4.7,5c1.7,0,3-0.6,4-1.9l1.6,1.1c-1.4,1.8-3.1,2.7-5.7,2.7C158.2,97.8,155.3,94.9,155.3,90.9z"/>
		<path d="M168.9,90.9c0-4,3.1-6.9,6.9-6.9c3.8,0,6.9,2.9,6.9,6.9c0,4-3.1,6.9-6.9,6.9C171.9,97.8,168.9,94.9,168.9,90.9z
			 M180.5,90.9c0-2.8-1.9-5-4.7-5c-2.8,0-4.7,2.1-4.7,5c0,2.8,1.9,5,4.7,5C178.5,95.9,180.5,93.7,180.5,90.9z"/>
	</g>
	<g class="st0">
		<path d="M80.1,112.8c0.6,1.2,1.7,1.8,3,1.8c1.4,0,2.4-0.7,2.4-1.8c0-1.3-0.9-1.7-2.1-2.2l-0.9-0.4c-2-0.9-3.3-1.9-3.3-4
			c0-2,1.5-3.5,3.7-3.5c1.7,0,3,0.7,3.8,2.1l-1.6,1c-0.5-0.9-1.2-1.3-2.2-1.3c-1.1,0-1.7,0.6-1.7,1.6c0,1.1,0.6,1.5,2.1,2.1l0.9,0.4
			c2,0.9,3.4,1.8,3.4,4.1c0,2.5-1.9,3.7-4.4,3.7c-2.3,0-3.9-1.1-4.8-2.8L80.1,112.8z"/>
		<path d="M91.9,116.3h-2.1v-13.4h3.4c3.7,0,5.7,2,5.7,5.1c0,3.1-2,5.1-5.7,5.1h-1.3V116.3z M93.1,111.2c2.6,0,3.6-1.2,3.6-3.2
			c0-2-1.1-3.2-3.6-3.2h-1.2v6.5H93.1z"/>
		<path d="M101.2,102.9h2.1v13.4h-2.1V102.9z"/>
		<path d="M115.5,116.3H113l-2.3-3.2c-0.3,0-0.6,0.1-1,0.1h-1.3v3.2h-2.1v-13.4h3.4c3.7,0,5.7,2,5.7,5.1c0,2.1-0.9,3.7-2.7,4.5
			L115.5,116.3z M109.6,111.3c2.6,0,3.6-1.2,3.6-3.3c0-2-1.1-3.2-3.6-3.2h-1.2v6.5H109.6z"/>
		<path d="M117.9,102.9h2.1v13.4h-2.1V102.9z"/>
		<path d="M126,104.8h-4v-1.9H132v1.9h-4v11.5H126V104.8z"/>
		<path d="M134.5,112.8c0.6,1.2,1.7,1.8,3,1.8c1.4,0,2.4-0.7,2.4-1.8c0-1.3-0.9-1.7-2.1-2.2l-0.9-0.4c-2-0.9-3.3-1.9-3.3-4
			c0-2,1.5-3.5,3.7-3.5c1.7,0,3,0.7,3.8,2.1l-1.6,1c-0.5-0.9-1.2-1.3-2.2-1.3c-1.1,0-1.7,0.6-1.7,1.6c0,1.1,0.7,1.5,2.1,2.1l0.9,0.4
			c2,0.9,3.4,1.8,3.4,4.1c0,2.5-1.9,3.7-4.4,3.7c-2.3,0-3.9-1.1-4.8-2.8L134.5,112.8z"/>
	</g>
	<g class="st0">
		<path d="M46.4,128.3c0-4,3-6.9,6.8-6.9c2.5,0,4.2,1,5.4,2.6l-1.6,1.1c-0.9-1.2-2-1.8-3.8-1.8c-2.7,0-4.6,2.1-4.6,5
			c0,2.9,2,5,4.7,5c1.7,0,3-0.6,4-1.9l1.6,1.1c-1.4,1.8-3.1,2.7-5.7,2.7C49.3,135.2,46.4,132.3,46.4,128.3z"/>
		<path d="M60,128.3c0-4,3.1-6.9,6.9-6.9c3.8,0,6.9,2.9,6.9,6.9c0,4-3.1,6.9-6.9,6.9C63,135.2,60,132.3,60,128.3z M71.6,128.3
			c0-2.8-1.9-5-4.7-5c-2.8,0-4.7,2.1-4.7,5c0,2.8,1.9,5,4.7,5C69.7,133.3,71.6,131.1,71.6,128.3z"/>
		<path d="M77,121.3h0.1l5.3,8.2l5.3-8.2h0.1l1.5,13.7h-2l-0.9-8.3l-4,6.2h-0.1l-4-6.2l-0.9,8.3h-1.9L77,121.3z"/>
		<path d="M94.2,135H92v-13.4h3.4c3.7,0,5.7,2,5.7,5.1c0,3.1-2,5.1-5.7,5.1h-1.3V135z M95.4,129.9c2.6,0,3.6-1.2,3.6-3.2
			c0-2-1.1-3.2-3.6-3.2h-1.2v6.5H95.4z"/>
		<path d="M103.4,121.6h8.5v1.9h-6.4v5.6h5.7v1.8h-5.7v2.3h6.7v1.9h-8.8V121.6z"/>
		<path d="M117.7,123.5h-4v-1.9h10.1v1.9h-4V135h-2.1V123.5z"/>
		<path d="M125.7,121.6h2.1V135h-2.1V121.6z"/>
		<path d="M133.8,123.5h-4v-1.9h10.1v1.9h-4V135h-2.1V123.5z"/>
		<path d="M141.9,121.6h2.1V135h-2.1V121.6z"/>
		<path d="M146.3,128.3c0-4,3.1-6.9,6.9-6.9s6.9,2.9,6.9,6.9c0,4-3.1,6.9-6.9,6.9S146.3,132.3,146.3,128.3z M157.9,128.3
			c0-2.8-1.9-5-4.7-5s-4.7,2.1-4.7,5c0,2.8,1.9,5,4.7,5S157.9,131.1,157.9,128.3z"/>
		<path d="M164.3,126.2v8.8h-2v-13.6h0.2l8.6,9v-8.8h2v13.6h-0.2L164.3,126.2z"/>
	</g>
</g>
</svg>
