<?xml version="1.0" encoding="utf-8"?>
<!-- Generator: Adobe Illustrator 26.2.1, SVG Export Plug-In . SVG Version: 6.00 Build 0)  -->
<svg version="1.1" id="Layer_1" xmlns="http://www.w3.org/2000/svg" xmlns:xlink="http://www.w3.org/1999/xlink" x="0px" y="0px"
	 width="221.1px" height="180.2px" viewBox="0 0 221.1 180.2" style="enable-background:new 0 0 221.1 180.2;" xml:space="preserve"
	>
<style type="text/css">
	.st0{enable-background:new    ;}
</style>
<g>
	<g>
		<g>
			<path d="M50.1,0c0,0-6.2,7.9-11,8.8S40.9-0.4,50.1,0z"/>
			<path d="M29.4,4.4c0,0,1.7,9.9-0.9,14.1S22.9,11,29.4,4.4z"/>
			<path d="M48.1,8.6c0,0-10,0.5-13.6,4S43.1,16.5,48.1,8.6z"/>
			<path d="M16,22.5c0,0,3.4,9.5,1.6,14S10.7,30.1,16,22.5z"/>
			<path d="M3.5,41c0,0,8.1,7.6,8.5,13C12.5,59.4,2.1,51.1,3.5,41z"/>
			<path d="M0.8,64.5c0,0,8.1,7.6,8.5,13S-0.7,74.6,0.8,64.5z"/>
			<path d="M0,88.2c0,0,9.4,5.4,11,10.3C12.6,103.5,0.8,98,0,88.2z"/>
			<path d="M1.3,109.9c0,0,10.9,2.2,14,6.6C18.4,120.8,5.2,119.2,1.3,109.9z"/>
			<path d="M7.5,134.5c0,0,11.4-3.2,16.5-0.7C29.2,136.4,15.8,141.4,7.5,134.5z"/>
			<path d="M19.5,154.4c0,0,12.6-5.5,18.8-3.3C44.5,153.3,29.8,161.1,19.5,154.4z"/>
			<path d="M37,170.9c0,0,10.9-8.4,17.4-7.8S48.6,174.9,37,170.9z"/>
			<path d="M56.1,178.6c0,0,10.9-6.2,16.8-4.8C78.7,175.2,66.1,183.7,56.1,178.6z"/>
			<path d="M37.1,23.7c0,0-10,0.5-13.6,4S32.1,31.5,37.1,23.7z"/>
			<path d="M27.4,38.5c0,0-9.5,3.3-11.9,7.6S24.8,47.5,27.4,38.5z"/>
			<path d="M26.1,114c0,0-4.9,10-3.4,15.3S31.1,123.1,26.1,114z"/>
			<path d="M61,149.4c0,0-1.6,12.6,1.9,18.1C66.4,173.1,69.6,158.3,61,149.4z"/>
			<path d="M35.7,128.4c0,0-3.4,12.1-0.7,17.3C37.8,150.9,43.1,136.5,35.7,128.4z"/>
			<path d="M48.8,139.9c0,0-3.3,13-0.3,18.5C51.5,163.8,56.8,148.4,48.8,139.9z"/>
			<path d="M20.3,56.6c0,0-8.1,6-9.1,10.8S20.5,65.9,20.3,56.6z"/>
			<path d="M20.7,93.7c0,0-5.5,8.5-5.4,14.7C15.3,114.5,22.5,105.2,20.7,93.7z"/>
			<path d="M17.2,75.6c0,0-6.6,7.6-6.6,12.5S19.4,84.7,17.2,75.6z"/>
			<path d="M84.4,174.2c-32.3-7.7-73.2-38.9-72.9-95.1C11.7,43,27.8,20.1,40.7,6C25.8,19.7,9.9,37.9,8.8,79
				c-1.6,56.1,41.1,94.2,73.9,97.9C82.7,176.9,88.2,175.2,84.4,174.2z"/>
		</g>
		<g>
			<path d="M171,0c0,0,6.2,7.9,11,8.8S180.2-0.4,171,0z"/>
			<path d="M191.6,4.4c0,0-1.7,9.9,0.9,14.1S198.2,11,191.6,4.4z"/>
			<path d="M173,8.6c0,0,10,0.5,13.6,4S178,16.5,173,8.6z"/>
			<path d="M205.1,22.5c0,0-3.4,9.5-1.6,14S210.4,30.1,205.1,22.5z"/>
			<path d="M217.6,41c0,0-8.1,7.6-8.5,13C208.6,59.4,219,51.1,217.6,41z"/>
			<path d="M220.3,64.5c0,0-8.1,7.6-8.5,13S221.7,74.6,220.3,64.5z"/>
			<path d="M221.1,88.2c0,0-9.4,5.4-11,10.3C208.5,103.5,220.3,98,221.1,88.2z"/>
			<path d="M219.8,109.9c0,0-10.9,2.2-14,6.6C202.6,120.8,215.9,119.2,219.8,109.9z"/>
			<path d="M213.5,134.5c0,0-11.4-3.2-16.5-0.7C191.9,136.4,205.3,141.4,213.5,134.5z"/>
			<path d="M201.6,154.4c0,0-12.6-5.5-18.8-3.3C176.6,153.3,191.3,161.1,201.6,154.4z"/>
			<path d="M184.1,170.9c0,0-10.9-8.4-17.4-7.8S172.5,174.9,184.1,170.9z"/>
			<path d="M165,178.6c0,0-10.9-6.2-16.8-4.8C142.4,175.2,155,183.7,165,178.6z"/>
			<path d="M184,23.7c0,0,10,0.5,13.6,4S188.9,31.5,184,23.7z"/>
			<path d="M193.7,38.5c0,0,9.5,3.3,11.9,7.6C208,50.5,196.2,47.5,193.7,38.5z"/>
			<path d="M194.9,114c0,0,4.9,10,3.4,15.3C196.9,134.6,190,123.1,194.9,114z"/>
			<path d="M160.1,149.4c0,0,1.6,12.6-1.9,18.1C154.7,173.1,151.5,158.3,160.1,149.4z"/>
			<path d="M185.3,128.4c0,0,3.4,12.1,0.7,17.3S178,136.5,185.3,128.4z"/>
			<path d="M172.3,139.9c0,0,3.3,13,0.3,18.5C169.6,163.8,164.3,148.4,172.3,139.9z"/>
			<path d="M200.8,56.6c0,0,8.1,6,9.1,10.8C210.9,72.3,200.6,65.9,200.8,56.6z"/>
			<path d="M200.4,93.7c0,0,5.5,8.5,5.4,14.7S198.5,105.2,200.4,93.7z"/>
			<path d="M203.8,75.6c0,0,6.6,7.6,6.6,12.5S201.7,84.7,203.8,75.6z"/>
			<path d="M136.7,174.2c32.3-7.7,73.2-38.9,72.9-95.1c-0.2-36.2-16.3-59-29.1-73.1c14.8,13.7,30.7,31.9,31.9,73
				c1.6,56.1-41.1,94.2-73.9,97.9C138.4,176.9,132.9,175.2,136.7,174.2z"/>
		</g>
	</g>
	<g class="st0">
		<path d="M71.1,33.3h9.2c5.2,0,7.6,2.9,7.6,6.6c0,2.3-1.2,4-3.1,4.9c3,0.9,4.9,3.2,4.9,6.5c0,4.4-2.8,7.8-8.7,7.8h-9.8V33.3z
			 M80,43.4c2.8,0,3.8-1.3,3.8-3.4c0-2-0.9-3.2-3.8-3.2h-4.9v6.6H80z M80.7,55.6c3.6,0,4.8-1.8,4.8-4.4s-1.4-4.5-5-4.5h-5.4v8.9
			H80.7z"/>
		<path d="M93.6,33.3h16.4v3.6H97.7v10.7h11v3.5h-11v4.4h12.9v3.6h-17V33.3z"/>
		<path d="M116.8,52.3c1.2,2.3,3.2,3.5,5.8,3.5c2.7,0,4.6-1.3,4.6-3.4c0-2.4-1.8-3.3-4.1-4.3l-1.8-0.8c-3.8-1.7-6.4-3.6-6.4-7.7
			c0-4,2.9-6.7,7.2-6.7c3.3,0,5.7,1.3,7.4,4.1l-3.1,2c-1-1.7-2.3-2.5-4.2-2.5c-2.1,0-3.3,1.2-3.3,3c0,2.1,1.3,2.8,4.1,4.1l1.8,0.8
			c3.9,1.7,6.5,3.5,6.5,7.9c0,4.7-3.6,7.1-8.5,7.1c-4.4,0-7.6-2.1-9.3-5.4L116.8,52.3z"/>
		<path d="M140.2,36.9h-7.7v-3.6h19.4v3.6h-7.7v22.2h-4.1V36.9z"/>
	</g>
	<g class="st0">
		<path d="M34.2,83c1.2,2.3,3.2,3.5,5.8,3.5c2.7,0,4.6-1.3,4.6-3.4c0-2.4-1.8-3.3-4.1-4.3L38.7,78c-3.8-1.7-6.4-3.6-6.4-7.7
			c0-4,2.9-6.7,7.2-6.7c3.3,0,5.7,1.3,7.4,4.1l-3.1,2c-1-1.7-2.3-2.5-4.2-2.5c-2.1,0-3.3,1.2-3.3,3c0,2.1,1.3,2.8,4.1,4.1l1.8,0.8
			c3.9,1.7,6.5,3.5,6.5,7.9c0,4.7-3.6,7.1-8.5,7.1c-4.4,0-7.6-2.1-9.3-5.4L34.2,83z"/>
		<path d="M57,89.8h-4.1V64h6.6c7.1,0,11,3.9,11,9.9c0,5.9-3.9,9.8-11,9.8H57V89.8z M59.4,80.1c5,0,7-2.4,7-6.2c0-3.9-2.1-6.3-7-6.3
			H57v12.5H59.4z"/>
		<path d="M92.6,89.8h-4.8l-4.4-6.3c-0.6,0.1-1.2,0.1-1.9,0.1h-2.5v6.2h-4.1V64h6.6c7.1,0,11,3.9,11,9.9c0,4-1.8,7.1-5.2,8.6
			L92.6,89.8z M81.3,80.1c5,0,7-2.4,7-6.3c0-3.9-2.1-6.3-7-6.3h-2.4v12.6H81.3z"/>
		<path d="M97.2,64h4.1v25.8h-4.1V64z"/>
		<path d="M112.8,67.6h-7.7V64h19.4v3.6h-7.7v22.2h-4.1V67.6z"/>
		<path d="M125.6,89.6l13.6-22h-11.5V64h18.1v0.2l-13.6,22h13.2v3.6h-19.7V89.6z"/>
		<path d="M150,64h16.4v3.6h-12.4v10.7h11v3.5h-11v4.4H167v3.6h-17V64z"/>
		<path d="M189.5,89.8h-4.8l-4.4-6.3c-0.6,0.1-1.2,0.1-1.9,0.1h-2.5v6.2h-4.1V64h6.6c7.1,0,11,3.9,11,9.9c0,4-1.8,7.1-5.2,8.6
			L189.5,89.8z M178.2,80.1c5,0,7-2.4,7-6.3c0-3.9-2.1-6.3-7-6.3h-2.4v12.6H178.2z"/>
	</g>
	<g class="st0">
		<path d="M51.6,103h2.1v11.5h5.9v1.9h-8V103z"/>
		<path d="M61.8,103h2.1v13.4h-2.1V103z"/>
		<path d="M80.2,116.7l-1.5,1.2l-2-2.3c-1,0.6-2.2,0.9-3.5,0.9c-3.8,0-6.9-2.9-6.9-6.9c0-4,3.1-6.9,6.9-6.9c3.8,0,6.9,2.9,6.9,6.9
			c0,1.9-0.7,3.5-1.9,4.8C79.1,115.5,80.2,116.7,80.2,116.7z M73.8,112.5l1.5-1.3c0,0,1.6,1.8,1.6,1.8c0.7-0.8,1-2,1-3.3
			c0-2.8-1.9-5-4.7-5c-2.8,0-4.7,2.1-4.7,5c0,2.8,1.9,5,4.7,5c0.8,0,1.6-0.2,2.2-0.5L73.8,112.5z"/>
		<path d="M82.3,111.7V103h2.1v8.5c0,2.1,1.1,3.1,3,3.1c1.9,0,3-1,3-3.1V103h2.1v8.7c0,3.3-2.2,4.9-5.1,4.9
			C84.5,116.6,82.3,115,82.3,111.7z"/>
		<path d="M94.7,109.7c0-4,3.1-6.9,6.9-6.9c3.8,0,6.9,2.9,6.9,6.9c0,4-3.1,6.9-6.9,6.9C97.7,116.6,94.7,113.7,94.7,109.7z
			 M106.3,109.7c0-2.8-1.9-5-4.7-5c-2.8,0-4.7,2.1-4.7,5c0,2.8,1.9,5,4.7,5C104.3,114.7,106.3,112.6,106.3,109.7z"/>
		<path d="M119.9,116.4h-2.5l-2.3-3.2c-0.3,0-0.6,0.1-1,0.1h-1.3v3.2h-2.1V103h3.4c3.7,0,5.7,2,5.7,5.1c0,2.1-0.9,3.7-2.7,4.5
			L119.9,116.4z M114.1,111.4c2.6,0,3.6-1.2,3.6-3.3c0-2-1.1-3.2-3.6-3.2h-1.2v6.5H114.1z"/>
		<path d="M121.5,115.2c0-0.8,0.7-1.4,1.4-1.4c0.7,0,1.4,0.6,1.4,1.4s-0.6,1.4-1.4,1.4C122.2,116.5,121.5,116,121.5,115.2z"/>
		<path d="M124.8,109.7c0-4,3-6.9,6.8-6.9c2.5,0,4.2,1,5.4,2.6l-1.6,1.1c-0.9-1.2-2-1.8-3.8-1.8c-2.7,0-4.6,2.1-4.6,5
			c0,2.9,2,5,4.7,5c1.7,0,3-0.6,4-1.9l1.6,1.1c-1.4,1.8-3.1,2.7-5.7,2.7C127.8,116.6,124.8,113.7,124.8,109.7z"/>
		<path d="M138.4,109.7c0-4,3.1-6.9,6.9-6.9s6.9,2.9,6.9,6.9c0,4-3.1,6.9-6.9,6.9S138.4,113.7,138.4,109.7z M150,109.7
			c0-2.8-1.9-5-4.7-5s-4.7,2.1-4.7,5c0,2.8,1.9,5,4.7,5S150,112.6,150,109.7z"/>
		<path d="M155.4,102.8h0.1l5.3,8.2l5.3-8.2h0.1l1.5,13.7h-2l-0.9-8.3l-4,6.2h-0.1l-4-6.2l-0.9,8.3h-1.9L155.4,102.8z"/>
	</g>
</g>
</svg>
