<svg width="21" height="20" viewBox="0 0 21 20" fill="none" xmlns="http://www.w3.org/2000/svg">
<path d="M6.48999 16C5.38999 16 4.49999 16.9 4.49999 18C4.49999 19.1 5.38999 20 6.48999 20C7.58999 20 8.48999 19.1 8.48999 18C8.48999 16.9 7.58999 16 6.48999 16ZM0.48999 0V2H2.48999L6.08999 9.59L4.73999 12.04C4.57999 12.32 4.48999 12.65 4.48999 13C4.48999 14.1 5.38999 15 6.48999 15H18.49V13H6.90999C6.76999 13 6.65999 12.89 6.65999 12.75L6.68999 12.63L7.58999 11H15.04C15.79 11 16.45 10.59 16.79 9.97L20.37 3.48C20.45 3.34 20.49 3.17 20.49 3C20.49 2.45 20.04 2 19.49 2H4.69999L3.75999 0H0.48999ZM16.49 16C15.39 16 14.5 16.9 14.5 18C14.5 19.1 15.39 20 16.49 20C17.59 20 18.49 19.1 18.49 18C18.49 16.9 17.59 16 16.49 16Z" fill="black"/>
</svg>
