<svg width="402" height="327" viewBox="0 0 402 327" fill="none" xmlns="http://www.w3.org/2000/svg">
<path d="M31.9 265.9C34.1 265.9 35.2 267.6 35.2 271.1C34.1 279.4 32.8 284.2 31.2 285.4C30.7 285.7 30.3 285.7 29.9 285.4C29.4 285.1 29.2 284.7 29.4 284.2C31 279.4 32.1 274.9 32.7 270.5C32.4 269.3 32.1 268.7 31.8 268.7C27 268.7 19.4 277.9 8.9 296.2C5.4 303.9 3.7 309.8 3.7 313.9C3.7 320 7.1 323.1 13.8 323.1H14.4C23.3 323.1 38.3 317.6 59.3 306.6C60 306.7 60.4 306.8 60.6 307.1C60.8 307.7 60.7 308.2 60.4 308.5C59.5 309.5 52.2 313.1 38.5 319.4C28.2 323.7 20 325.8 13.8 325.8C5.2 325.8 1 321.7 1 313.6C1 304 7.2 291.1 19.7 274.8C25.3 268.9 29.3 265.9 31.9 265.9Z" fill="white"/>
<path d="M13.8 326.8C4.8 326.8 0 322.2 0 313.6C0 303.8 6.3 290.6 18.9 274.2L19 274.1C24.9 267.9 29.1 264.9 31.9 264.9C33.9 264.9 36.2 266 36.2 271.1V271.2C34.7 282.7 33 285.2 31.9 286.2L31.7 286.3C30.9 286.7 30.1 286.7 29.4 286.3C28.5 285.8 28.2 284.9 28.5 283.9C30.1 279.3 31.2 274.8 31.8 270.5C31.7 270.1 31.6 269.8 31.5 269.6C28.4 270 22.1 275.2 9.8 296.6C6.5 304 4.7 309.8 4.7 313.8C4.7 319.4 7.6 322 13.8 322H14.4C23.1 322 38.1 316.5 58.9 305.6L59.2 305.5H59.5C60.5 305.6 61.2 305.9 61.5 306.5L61.6 306.7C62 308 61.5 308.8 61.2 309.1C60.5 309.9 57.3 311.8 39 320.2C28.6 324.6 20.1 326.8 13.8 326.8ZM20.4 275.4C8.2 291.4 2 304.3 2 313.6C2 321.2 5.9 324.8 13.9 324.8C19.9 324.8 28.1 322.7 38.3 318.5C55.9 310.4 59.4 308.3 59.8 307.8C59.8 307.8 59.9 307.7 59.8 307.6C59.8 307.6 59.7 307.6 59.6 307.6C38.4 318.7 23.6 324.1 14.5 324.1H13.9C6.7 324.1 2.8 320.6 2.8 314C2.8 309.7 4.5 303.7 8.1 295.9C19.1 276.7 26.6 267.8 31.9 267.8C33 267.8 33.5 269.1 33.7 270.4V270.6V270.8C33.1 275.2 31.9 279.9 30.3 284.7C30.2 284.7 30.3 284.7 30.3 284.8C30.4 284.9 30.5 284.9 30.6 284.8C31.4 284.1 32.8 281.3 34.1 271.2C34.1 267.1 32.4 267.1 31.7 267.1C30.3 266.9 27.1 268.4 20.4 275.4Z" fill="white"/>
<path d="M86.9998 306.7C91.9998 307.3 92.3998 307.2 97.0998 306.9C103.1 306.5 106.7 304.4 106.7 304.4C107.4 304.2 109.8 307 107.4 308.1C104.2 309.8 99.6998 310.2 99.4998 310.3C95.8998 311 89.6998 310.5 89.6998 310.5C85.7998 310.2 81.9998 309.7 77.6998 308.9C75.5998 308.6 73.4998 308.2 71.3998 307.9C71.2998 308.3 71.0998 309.6 70.6998 311.7C70.5998 311.9 70.5998 312.2 70.5998 312.4C70.0998 315 68.9998 317.9 67.0998 321C65.2998 324.1 62.5998 325.7 59.0998 325.8H58.2998C54.6998 325.4 52.7998 322.9 52.7998 318.6C52.9998 313 56.6998 307.2 63.7998 301.2C65.4998 300.7 66.3998 301.5 66.4998 303.7C58.4998 310.8 55.1998 316.4 56.5998 320.7C56.9998 321.7 57.9998 322.3 59.3998 322.3C63.9998 320.7 66.6998 315 67.6998 305.2C67.8998 304.6 68.2998 304.1 68.7998 303.9C69.2998 303.8 69.8998 303.8 70.4998 304C72.5998 304.3 74.5998 304.7 76.5998 305C81.6998 305.9 82.8998 306.1 86.9998 306.7Z" fill="white"/>
<path d="M168 277.5H168.3C169.5 277.7 170.1 278.5 170.1 279.9V280.8C170.1 284.2 167.9 289.4 163.4 296.5C161.8 299.2 158.6 303 153.9 308C153.4 308 152.6 309.7 151.7 313.1C150.6 316.3 150.1 318.9 150.1 321C150.1 322.3 150.5 323 151.2 323C161.8 323 177.9 319.3 211.1 307.8H211.2C211.9 307.8 212.4 308.3 212.6 309.3C212.6 310.2 211.5 310.8 209.4 311.3C177.5 322.3 162 325.9 151.1 325.9C149.3 325.9 148.1 324.9 147.3 322.9C147.2 322.3 147.1 321.7 147.1 321.4V320.3C147.1 314.7 151 304.3 158.9 289C160.7 285.5 163 282.1 165.6 278.7C166.6 277.9 167.4 277.5 168 277.5ZM166.4 281.6C165.6 282.3 159.1 293.6 155.9 300.9C168.1 290.5 168.2 280.3 168.2 280.3L166.4 281.6Z" fill="white"/>
<path d="M151.2 326.5C149.2 326.5 147.7 325.4 146.9 323.1C146.7 322.3 146.7 321.8 146.7 321.4V320.3C146.7 314.6 150.6 304.3 158.6 288.8C160.4 285.3 162.7 281.8 165.4 278.4L165.5 278.3C166.5 277.5 167.3 277.1 168 277.1H168.3C169.4 277.3 170.7 277.9 170.7 280.1V281C170.7 284.5 168.5 289.8 163.9 297C162.3 299.7 159 303.6 154.3 308.6L154.1 308.8H154C153.8 308.9 153.3 309.7 152.2 313.5C151.1 316.6 150.6 319.2 150.6 321.2C150.6 322.2 150.8 322.7 151.2 322.7C162.3 322.7 179.6 318.3 210.9 307.6H211.1C211.9 307.6 212.8 307.9 213.1 309.5V309.6C213.1 311.3 210.4 311.9 209.5 312.1C179.2 322.4 162.8 326.5 151.2 326.5ZM166.2 279C163.6 282.4 161.4 285.8 159.6 289.2C151.8 304.3 147.8 314.8 147.8 320.2V321.3C147.8 321.6 147.9 322.1 148 322.7C148.6 324.4 149.7 325.3 151.2 325.3C162.7 325.3 179 321.2 209.3 310.8C211 310.4 212 309.9 212.1 309.3C211.9 308.3 211.4 308.3 211.2 308.3C179.9 319.1 162.5 323.5 151.2 323.5C150.4 323.5 149.5 323.1 149.5 320.9C149.5 318.8 150.1 316.1 151.2 312.8C152.4 308.5 153.1 307.6 153.7 307.4C158.3 302.6 161.4 298.8 163 296.2C167.4 289.3 169.6 284.1 169.6 280.8V280C169.6 278.5 168.9 278.2 168.2 278.1H167.9C167.6 278 167.1 278.2 166.2 279ZM154.4 302.8L155.3 300.6C158.4 293.6 165 282 165.9 281.1H166L168.6 279.2V280.3C168.6 280.7 168.4 290.9 156.2 301.3L154.4 302.8ZM166.8 282C166.1 282.8 160.9 291.7 157.5 298.8C165.3 291.3 167.1 284.2 167.5 281.5L166.8 282Z" fill="white"/>
<path d="M257.2 265.9C259.4 265.9 260.5 267.6 260.5 271.1C259.4 279.4 258.1 284.2 256.5 285.4C256 285.7 255.6 285.7 255.2 285.4C254.7 285.1 254.5 284.7 254.7 284.2C256.3 279.4 257.4 274.9 258 270.5C257.7 269.3 257.4 268.7 257.1 268.7C252.3 268.7 244.7 277.9 234.2 296.2C230.7 303.9 229 309.8 229 313.9C229 320 232.4 323.1 239.1 323.1H239.7C248.6 323.1 263.6 317.6 284.6 306.6C285.3 306.7 285.7 306.8 285.9 307.1C286.1 307.7 286 308.2 285.7 308.5C284.8 309.5 277.5 313.1 263.8 319.4C253.5 323.7 245.3 325.8 239.1 325.8C230.5 325.8 226.3 321.7 226.3 313.6C226.3 304 232.5 291.1 245 274.8C250.6 268.9 254.6 265.9 257.2 265.9Z" fill="white"/>
<path d="M239.1 326.8C230.1 326.8 225.3 322.2 225.3 313.6C225.3 303.8 231.6 290.6 244.2 274.2L244.3 274.1C250.2 267.9 254.4 264.9 257.2 264.9C259.2 264.9 261.5 266 261.5 271.1V271.2C260 282.7 258.3 285.2 257.2 286.2L257 286.3C256.2 286.7 255.4 286.7 254.7 286.3C253.8 285.8 253.5 284.9 253.8 283.9C255.4 279.3 256.5 274.8 257.1 270.5C257 270.1 256.9 269.8 256.8 269.6C253.7 270 247.4 275.2 235.1 296.6C231.8 304 230 309.8 230 313.8C230 319.4 232.9 322 239.1 322H239.7C248.4 322 263.4 316.5 284.2 305.6L284.4 305.5H284.7C285.7 305.6 286.4 305.9 286.7 306.5L286.8 306.7C287.2 308 286.7 308.8 286.4 309.1C285.7 309.9 282.5 311.8 264.2 320.2C253.9 324.6 245.4 326.8 239.1 326.8ZM245.7 275.4C233.5 291.4 227.3 304.3 227.3 313.6C227.3 321.2 231.2 324.8 239.2 324.8C245.2 324.8 253.4 322.7 263.6 318.5C281.2 310.4 284.7 308.3 285.1 307.8C285.1 307.8 285.2 307.7 285.1 307.6C285.1 307.6 285 307.6 284.9 307.6C263.7 318.7 248.9 324.1 239.8 324.1H239.2C232 324.1 228.1 320.6 228.1 314C228.1 309.7 229.8 303.7 233.4 295.9C244.4 276.7 251.9 267.8 257.2 267.8C258.3 267.8 258.8 269.1 259 270.4V270.6V270.8C258.4 275.2 257.2 279.9 255.6 284.7C255.6 284.7 255.6 284.7 255.6 284.8C255.7 284.9 255.8 284.9 255.9 284.8C256.7 284.1 258.1 281.3 259.4 271.2C259.4 267.1 257.7 267.1 257 267.1C255.6 266.9 252.4 268.4 245.7 275.4Z" fill="white"/>
<path d="M297.5 300.3C301.1 300.4 303 301.1 303.2 302.5C303.3 303.6 303.2 304.5 302.9 305.1L303.2 304.7C304.5 302.7 306 301.6 307.6 301.6C308.6 301.8 309 302.5 308.9 303.8C307 308.4 304.8 313 305 317.8C305.3 324.3 313.6 322.1 313.6 322.1C321.4 320.6 328.3 317.7 334.4 314.4C335.6 314 335.4 316.1 335.9 316.7C336.4 317.6 341.3 317.2 321.1 324.3C317.9 325.2 314.5 325.9 311.1 326.5H308.9C304.1 326.2 301.3 323.3 300.7 317.9C300.7 315.4 301.2 312.9 302.3 310.3C295.9 314.5 290 317 284.8 317.7C281 317.3 279.1 315.7 279.1 312.9C279.1 309.6 282.8 305.9 290.1 302C292.2 301.2 294.7 300.6 297.5 300.3ZM283.5 312.6C283.2 313.3 283.9 313.6 285.7 313.5C291.3 312.6 296.7 309.9 301.9 305.2L298.8 304.8H297.1C291.7 304.7 287.1 307.3 283.5 312.6Z" fill="white"/>
<path d="M380.6 317.6C366.1 323.6 354.9 326.6 347.1 326.6H345.5C337.2 326.6 333 322.2 333 313.4C333.1 312.3 333.5 310.4 334.3 307.9C336 302.7 339.9 292.4 340.9 290.8C341.6 290.1 342.4 289.9 343.5 290.5C344.2 291 344.4 291.7 344.1 292.7C343.8 293.1 340.3 302.2 338.8 306.3L363.4 302.5C363.9 302.5 364.3 302.6 364.6 302.8C364.9 303 365.1 303.5 365.1 304.2C365.1 304.9 364.8 305.4 364.1 305.6L337.8 309.6C337.4 311.2 337.2 312.5 337.1 313.6C337.1 319.6 340.2 322.6 346.5 322.6H349.2C355.7 322.6 365.7 319.8 379.4 314.2C385.5 311.5 392.3 308.3 399.6 304.7C400.2 304.5 400.7 304.5 401.2 304.7C401.7 304.8 402 305.4 401.9 306.3C401.9 307.7 394.8 311.4 380.6 317.6Z" fill="white"/>
<path d="M347.1 326.8H345.5C337.1 326.8 332.8 322.3 332.7 313.4C332.8 312.3 333.2 310.4 334 307.8C335.7 302.7 339.6 292.3 340.6 290.7C341.4 289.8 342.3 289.7 343.5 290.3C344.1 290.7 344.7 291.5 344.2 292.8V292.9C343.9 293.3 340.7 301.6 339.1 306L363.3 302.2C363.9 302.2 364.3 302.3 364.7 302.6C365.1 302.9 365.3 303.4 365.3 304.2C365.3 305.1 364.9 305.6 364.1 305.8L337.9 309.8C337.6 311.3 337.3 312.6 337.2 313.6C337.2 319.4 340.2 322.3 346.3 322.3H349C355.4 322.3 365.5 319.5 379.1 313.9C385.2 311.2 392 308 399.3 304.4C400 304.2 400.6 304.1 401.1 304.3C401.7 304.4 402 305.1 402 306.2C402 307.1 399.8 309.3 380.7 317.6H380.6C366.3 323.8 355 326.8 347.1 326.8ZM342.2 290.4C341.7 290.4 341.4 290.6 341 291C340.1 292.5 336.2 302.9 334.5 308C333.7 310.5 333.3 312.3 333.3 313.4C333.4 322.1 337.4 326.3 345.6 326.3H347.2C355 326.3 366.2 323.3 380.6 317.4H380.7C399 309.5 401.7 307.1 401.7 306.4C401.7 305.6 401.5 305.1 401.1 305C400.6 304.8 400.1 304.8 399.6 305C392.3 308.6 385.5 311.8 379.4 314.5C365.7 320.1 355.5 322.9 349.1 322.9H346.4C340 322.9 336.8 319.8 336.8 313.7C336.9 312.6 337.2 311.2 337.6 309.6V309.4L364.1 305.3C364.6 305.2 364.9 304.8 364.9 304.1C364.9 303.5 364.8 303 364.5 302.9C364.2 302.7 363.9 302.6 363.5 302.6L338.5 306.5L338.6 306.1C340 302.3 343.4 293.3 343.9 292.5C344.2 291.6 344 291 343.4 290.6C342.9 290.5 342.5 290.4 342.2 290.4Z" fill="white"/>
<path d="M132.9 306.7C137.9 307.3 138.3 307.2 143 306.9C149 306.5 152.6 304.4 152.6 304.4C153.3 304.2 155.7 307 153.3 308.1C150.1 309.8 145.6 310.2 145.4 310.3C141.8 311 135.6 310.5 135.6 310.5C131.7 310.2 127.9 309.7 123.6 308.9C121.5 308.6 119.4 308.2 117.3 307.9C117.2 308.3 117 309.6 116.6 311.7C116.5 311.9 116.5 312.2 116.5 312.4C116 315 114.9 317.9 113 321C111.2 324.1 108.5 325.7 105 325.8H104.2C100.6 325.4 98.7002 322.9 98.7002 318.6C98.9002 313 102.6 307.2 109.7 301.2C111.4 300.7 112.3 301.5 112.4 303.7C104.4 310.8 101.1 316.4 102.5 320.7C102.9 321.7 103.9 322.3 105.3 322.3C109.9 320.7 112.6 315 113.6 305.2C113.8 304.6 114.2 304.1 114.7 303.9C115.2 303.8 115.8 303.8 116.4 304C118.5 304.3 120.5 304.7 122.5 305C127.6 305.9 128.8 306.1 132.9 306.7Z" fill="white"/>
<path d="M298.6 0.900098L260.1 107.9L204.3 59.1001L298.6 0.900098ZM301.1 4.8001L263.1 110.5L301.1 143.7C301.1 81.1001 301.1 65.7001 301.1 4.8001ZM197.5 58.3001L102.9 0.600098L141.7 107.4L197.5 58.3001ZM101 143.2L138.8 110L101 5.9001C101 64.8001 101 80.5001 101 143.2ZM258 110.6L201 60.3001L144 110.5L201 180.3L258 110.6ZM260.8 113.1L201.1 186.3L141.3 113L102.2 147.5C135.4 180.9 168.6 214.3 201.5 247.3C234.3 214.3 267.5 181 300.4 148L260.8 113.1Z" fill="white"/>
<path d="M311 7.3H309.9L308.9 5.9C308.8 5.9 308.6 5.9 308.5 5.9H307.9V7.3H307V1.5H308.5C310.1 1.5 311 2.4 311 3.7C311 4.6 310.6 5.3 309.8 5.6L311 7.3ZM308.5 5.1C309.6 5.1 310.1 4.6 310.1 3.7C310.1 2.8 309.6 2.3 308.5 2.3H308V5.1H308.5Z" fill="white"/>
<path d="M308.7 9C306.2 9 304.2 7 304.2 4.5C304.2 2 306.2 0 308.7 0C311.2 0 313.2 2 313.2 4.5C313.2 7 311.2 9 308.7 9ZM308.7 0.8C306.7 0.8 305 2.5 305 4.5C305 6.5 306.7 8.2 308.7 8.2C310.7 8.2 312.4 6.5 312.4 4.5C312.4 2.5 310.7 0.8 308.7 0.8Z" fill="white"/>
</svg>
