<?xml version="1.0" encoding="utf-8"?>
<!-- Generator: Adobe Illustrator 26.2.1, SVG Export Plug-In . SVG Version: 6.00 Build 0)  -->
<svg version="1.1" id="Layer_2" xmlns="http://www.w3.org/2000/svg" xmlns:xlink="http://www.w3.org/1999/xlink" x="0px" y="0px"
	 width="322.9px" height="262px" viewBox="0 0 322.9 262" style="enable-background:new 0 0 322.9 262;" xml:space="preserve">
<style type="text/css">
	.st0{fill:#FFFFFF;}
</style>
<g>
	<g>
		<g>
			<path class="st0" d="M25.6,213.1c1.8,0,2.7,1.4,2.7,4.2c-0.9,6.7-1.9,10.5-3.2,11.5c-0.4,0.2-0.8,0.2-1.1,0
				c-0.4-0.2-0.5-0.6-0.4-1c1.3-3.8,2.2-7.5,2.7-11c-0.2-1-0.5-1.5-0.7-1.5c-3.8,0-10,7.4-18.4,22.1C4.4,243.5,3,248.3,3,251.6
				c0,4.9,2.7,7.4,8.1,7.4h0.5c7.2,0,19.2-4.4,36.1-13.2c0.5,0,0.9,0.2,1,0.4c0.2,0.5,0.1,0.9-0.2,1.1c-0.7,0.8-6.6,3.7-17.6,8.7
				c-8.3,3.4-14.9,5.2-19.9,5.2c-6.9,0-10.3-3.3-10.3-9.8c0-7.7,5-18.1,15-31.2C20.3,215.5,23.6,213.1,25.6,213.1z"/>
			<path class="st0" d="M11.1,262C3.8,262,0,258.3,0,251.4c0-7.8,5.1-18.5,15.1-31.6c4.8-5,8.2-7.4,10.4-7.4c1.6,0,3.5,0.9,3.5,5
				l0,0.1c-1.2,9.2-2.5,11.3-3.5,12l-0.1,0.1c-0.6,0.3-1.3,0.3-1.9,0c-0.7-0.4-1-1.1-0.7-1.9c1.3-3.7,2.1-7.3,2.6-10.7
				c-0.1-0.4-0.2-0.6-0.2-0.7c-2.5,0.3-7.6,4.5-17.4,21.7c-2.7,6-4.1,10.6-4.1,13.8c0,4.5,2.3,6.6,7.3,6.6h0.5c7,0,19-4.4,35.7-13.2
				l0.2-0.1l0.2,0c0.8,0.1,1.4,0.3,1.6,0.8l0.1,0.1c0.3,1-0.1,1.6-0.3,1.9c-0.6,0.6-3.1,2.2-17.8,8.9C23,260.2,16.2,262,11.1,262z
				 M25.6,213.9c-1.2,0-3.9,1.2-9.2,6.9c-9.8,12.8-14.8,23.1-14.8,30.6c0,6.1,3.1,9,9.5,9c4.9,0,11.4-1.7,19.6-5.1
				c14.2-6.5,16.9-8.2,17.3-8.6c0,0,0-0.1,0-0.2c0,0-0.1,0-0.2,0c-17,8.9-28.9,13.2-36.2,13.2h-0.5c-5.8,0-8.9-2.8-8.9-8.1
				c0-3.5,1.4-8.2,4.2-14.6c8.8-15.4,14.9-22.5,19.1-22.5c0.9,0,1.2,1.1,1.5,2.1l0,0.1l0,0.1c-0.5,3.5-1.4,7.3-2.7,11.2
				c0.1,0.1,0.2,0.1,0.3,0.1c0.6-0.6,1.8-2.8,2.8-10.9C27.5,213.9,26.1,213.9,25.6,213.9z"/>
		</g>
		<path class="st0" d="M69.9,245.9c4,0.5,4.3,0.4,8.1,0.2c4.8-0.3,7.7-2,7.7-2c0.5-0.2,2.5,2.1,0.6,3c-2.6,1.4-6.2,1.7-6.3,1.7
			c-2.9,0.6-7.8,0.2-7.8,0.2c-3.1-0.2-6.2-0.7-9.6-1.3c-1.7-0.3-3.4-0.6-5.1-0.8c-0.1,0.3-0.2,1.3-0.5,3.1c-0.1,0.2-0.1,0.4-0.1,0.6
			c-0.4,2.1-1.3,4.4-2.8,6.9c-1.5,2.5-3.6,3.7-6.5,3.8h-0.6c-2.9-0.4-4.4-2.3-4.4-5.8c0.2-4.5,3.1-9.2,8.9-14c1.4-0.4,2.1,0.3,2.1,2
			c-6.4,5.7-9.1,10.2-7.9,13.6c0.4,0.8,1.1,1.3,2.3,1.3c3.7-1.3,5.9-5.8,6.7-13.7c0.2-0.5,0.4-0.9,0.9-1c0.4-0.1,0.9-0.1,1.4,0.1
			c1.7,0.3,3.3,0.6,4.9,0.8C65.6,245.2,66.5,245.4,69.9,245.9"/>
		<g>
			<path class="st0" d="M134.9,222.4h0.3c1,0.2,1.5,0.8,1.5,2v0.7c0,2.7-1.8,6.9-5.4,12.6c-1.3,2.2-3.8,5.3-7.6,9.2
				c-0.4,0-1,1.4-1.8,4.1c-0.9,2.6-1.3,4.7-1.3,6.3c0,1.1,0.3,1.6,0.9,1.6c8.5,0,21.4-3,48.1-12.2h0.1c0.6,0,1,0.4,1.2,1.2
				c0,0.7-0.8,1.2-2.5,1.6c-25.6,8.8-38.1,11.7-46.8,11.7c-1.4,0-2.4-0.8-3-2.4c-0.1-0.5-0.2-0.9-0.2-1.2v-0.9
				c0-4.5,3.2-12.8,9.5-25.1c1.5-2.8,3.3-5.5,5.4-8.3C133.8,222.7,134.4,222.4,134.9,222.4z M133.6,225.7c-0.6,0.6-5.9,9.6-8.4,15.5
				c9.8-8.3,9.8-16.5,9.8-16.5L133.6,225.7z"/>
			<path class="st0" d="M121.4,261.7c-1.6,0-2.8-0.9-3.4-2.7c-0.1-0.6-0.2-1-0.2-1.4v-0.9c0-4.6,3.1-12.9,9.6-25.3
				c1.5-2.8,3.3-5.6,5.4-8.4c0.9-0.7,1.5-1,2.1-1h0.3c0.9,0.1,1.9,0.7,1.9,2.4v0.7c0,2.8-1.8,7-5.5,12.8c-1.3,2.2-3.9,5.3-7.7,9.3
				l-0.1,0.1h-0.2c0,0-0.4,0.5-1.4,3.7c-0.9,2.5-1.3,4.6-1.3,6.2c0,0.8,0.2,1.2,0.5,1.2c8.9,0,22.8-3.5,48-12.1l0.1,0
				c0.6,0,1.4,0.3,1.6,1.6c0,1.5-2.2,2-2.9,2.1C143.9,258.4,130.8,261.7,121.4,261.7z M135.1,222.8l-0.2,0c-0.3,0-0.7,0.1-1.5,0.8
				c-2,2.7-3.8,5.4-5.3,8.2c-6.3,12.2-9.5,20.5-9.5,24.9v0.9c0,0.3,0.1,0.6,0.2,1.1c0.5,1.4,1.3,2.1,2.6,2.1
				c9.3,0,22.3-3.3,46.7-11.7c1.4-0.3,2.2-0.8,2.2-1.2c-0.2-0.8-0.6-0.8-0.7-0.8c-25.2,8.6-39.1,12.2-48.2,12.2
				c-0.6,0-1.3-0.4-1.3-2.1c0-1.7,0.5-3.9,1.3-6.5c1-3.5,1.5-4.2,2-4.3c3.7-3.9,6.2-6.9,7.5-9c3.5-5.6,5.3-9.7,5.3-12.4v-0.7
				C136.2,223.2,135.6,222.9,135.1,222.8z M124,242.7l0.8-1.7c2.5-5.6,7.8-14.9,8.5-15.6l0,0l2.1-1.5l0,0.9c0,0.3-0.2,8.5-10,16.8
				L124,242.7z M133.9,226c-0.6,0.6-4.7,7.8-7.5,13.5c6.3-6,7.7-11.7,8-13.9L133.9,226z"/>
		</g>
		<g>
			<path class="st0" d="M206.5,213.1c1.8,0,2.7,1.4,2.7,4.2c-0.9,6.7-1.9,10.5-3.2,11.5c-0.4,0.2-0.8,0.2-1.1,0
				c-0.4-0.2-0.5-0.6-0.4-1c1.3-3.8,2.2-7.5,2.7-11c-0.2-1-0.5-1.5-0.7-1.5c-3.8,0-10,7.4-18.4,22.1c-2.8,6.2-4.2,10.9-4.2,14.2
				c0,4.9,2.7,7.4,8.1,7.4h0.5c7.2,0,19.2-4.4,36.1-13.2c0.5,0,0.9,0.2,1,0.4c0.2,0.5,0.1,0.9-0.2,1.1c-0.7,0.8-6.6,3.7-17.6,8.7
				c-8.3,3.4-14.9,5.2-19.9,5.2c-6.9,0-10.3-3.3-10.3-9.8c0-7.7,5-18.1,15-31.2C201.2,215.5,204.5,213.1,206.5,213.1z"/>
			<path class="st0" d="M192,262c-7.3,0-11.1-3.7-11.1-10.6c0-7.8,5.1-18.5,15.1-31.6c4.8-5,8.2-7.4,10.4-7.4c1.6,0,3.5,0.9,3.5,5
				l0,0.1c-1.2,9.2-2.5,11.3-3.5,12l-0.1,0.1c-0.6,0.3-1.3,0.3-1.9,0c-0.7-0.4-1-1.1-0.7-1.9c1.3-3.7,2.1-7.3,2.6-10.7
				c-0.1-0.4-0.2-0.6-0.2-0.7c-2.5,0.3-7.6,4.5-17.4,21.7c-2.7,6-4.1,10.6-4.1,13.8c0,4.5,2.3,6.6,7.3,6.6h0.5c7,0,19-4.4,35.7-13.2
				l0.2-0.1l0.2,0c0.8,0.1,1.4,0.3,1.6,0.8l0.1,0.1c0.3,1-0.1,1.6-0.3,1.9c-0.6,0.6-3.1,2.2-17.8,8.9C203.9,260.2,197.1,262,192,262
				z M206.5,213.9c-1.2,0-3.9,1.2-9.2,6.9c-9.8,12.8-14.8,23.1-14.8,30.6c0,6.1,3.1,9,9.5,9c4.9,0,11.4-1.7,19.6-5.1
				c14.2-6.5,16.9-8.2,17.3-8.6c0,0,0-0.1,0-0.2c0,0-0.1,0-0.2,0c-16.8,8.8-29,13.2-36.2,13.2H192c-5.8,0-8.9-2.8-8.9-8.1
				c0-3.5,1.4-8.2,4.2-14.6c8.8-15.4,14.9-22.5,19.1-22.5c0.9,0,1.2,1.1,1.5,2.1l0,0.1l0,0.1c-0.5,3.5-1.4,7.3-2.7,11.2
				c0.1,0.1,0.2,0.1,0.3,0.1c0.6-0.6,1.8-2.8,2.8-10.9C208.4,213.9,207,213.9,206.5,213.9z"/>
		</g>
		<path class="st0" d="M238.9,240.7c2.9,0.1,4.4,0.6,4.6,1.7c0.1,0.9,0,1.6-0.2,2.1l0.2-0.3c1.1-1.6,2.2-2.5,3.5-2.5
			c0.8,0.2,1.1,0.7,1.1,1.7c-1.6,3.7-3.3,7.4-3.2,11.2c0.2,5.2,6.9,3.4,6.9,3.4c6.3-1.2,11.8-3.5,16.7-6.2c1-0.3,0.8,1.3,1.2,1.9
			c0.4,0.7,4.3,0.4-11.9,6.1c-2.6,0.7-5.3,1.3-8.1,1.7H248c-3.9-0.3-6.1-2.6-6.6-6.9c0-2,0.4-4,1.3-6.1c-5.2,3.4-9.8,5.4-14.1,5.9
			c-3-0.3-4.6-1.6-4.6-3.9c0-2.7,2.9-5.6,8.8-8.8C234.7,241.4,236.6,240.9,238.9,240.7z M227.7,250.6c-0.2,0.6,0.3,0.8,1.7,0.7
			c4.5-0.7,8.8-2.9,13-6.7l-2.5-0.3h-1.4C234.2,244.2,230.6,246.3,227.7,250.6z"/>
		<g>
			<path class="st0" d="M305.6,254.6c-11.6,4.8-20.6,7.2-26.9,7.2h-1.3c-6.7,0-10-3.5-10.1-10.6c0-0.9,0.4-2.4,1-4.4
				c1.4-4.2,4.5-12.4,5.3-13.7c0.5-0.6,1.2-0.7,2.1-0.3c0.6,0.4,0.8,1,0.5,1.8c-0.2,0.3-3,7.7-4.2,10.9l19.8-3.1
				c0.4,0,0.7,0.1,0.9,0.3c0.2,0.2,0.4,0.6,0.4,1.2c0,0.6-0.3,1-0.8,1.1l-21.1,3.3c-0.3,1.3-0.5,2.3-0.6,3.2c0,4.8,2.5,7.2,7.5,7.2
				h2.2c5.2,0,13.3-2.2,24.3-6.7c4.9-2.2,10.3-4.7,16.2-7.6c0.5-0.2,0.9-0.2,1.3,0c0.4,0.1,0.6,0.5,0.6,1.3
				C322.7,246.7,317,249.7,305.6,254.6L305.6,254.6z"/>
			<path class="st0" d="M278.8,262h-1.3c-6.8,0-10.2-3.6-10.3-10.8c0.1-0.9,0.4-2.4,1-4.5c1.3-4.1,4.5-12.5,5.3-13.7
				c0.6-0.7,1.4-0.8,2.3-0.3c0.5,0.3,1,0.9,0.6,2l0,0.1c-0.2,0.3-2.8,7-4.1,10.6l19.5-3c0.4,0,0.8,0.1,1.1,0.3
				c0.3,0.2,0.4,0.6,0.4,1.3c0,0.7-0.3,1.1-0.9,1.3l-21,3.2c-0.3,1.2-0.5,2.2-0.6,3.1c0,4.7,2.4,7,7.3,7h2.2
				c5.1,0,13.3-2.3,24.2-6.7c4.9-2.2,10.4-4.7,16.2-7.6c0.5-0.2,1-0.2,1.5,0c0.5,0.1,0.8,0.6,0.7,1.5c0,0.7-1.8,2.5-17.1,9.2l-0.1,0
				C294.1,259.6,285,262,278.8,262z M274.8,232.7c-0.4,0-0.7,0.2-0.9,0.5c-0.7,1.2-3.9,9.5-5.2,13.6c-0.6,2-1,3.5-1,4.4
				c0,7,3.3,10.4,9.9,10.4h1.3c6.2,0,15.3-2.4,26.8-7.2l0.1,0c14.7-6.4,16.9-8.2,16.9-8.8c0-0.7-0.1-1-0.4-1.1
				c-0.4-0.1-0.8-0.1-1.2,0c-5.8,2.9-11.3,5.5-16.2,7.6c-11,4.5-19.2,6.7-24.4,6.7h-2.2c-5.1,0-7.7-2.5-7.7-7.4
				c0.1-0.9,0.3-2,0.6-3.3l0-0.1l0.1,0l21.1-3.3c0.4-0.1,0.6-0.4,0.6-0.9c0-0.5-0.1-0.9-0.3-1c-0.2-0.2-0.5-0.3-0.8-0.2l-20.1,3.1
				l0.1-0.3c1.1-3,3.8-10.3,4.2-10.9c0.2-0.7,0.1-1.2-0.4-1.5C275.3,232.8,275,232.7,274.8,232.7z"/>
		</g>
		<path class="st0" d="M106.7,245.9c4,0.5,4.3,0.4,8.1,0.2c4.8-0.3,7.7-2,7.7-2c0.5-0.2,2.5,2.1,0.6,3c-2.6,1.4-6.2,1.7-6.3,1.7
			c-2.9,0.6-7.8,0.2-7.8,0.2c-3.1-0.2-6.2-0.7-9.6-1.3c-1.7-0.3-3.4-0.6-5.1-0.8c-0.1,0.3-0.2,1.3-0.5,3.1c-0.1,0.2-0.1,0.4-0.1,0.6
			c-0.4,2.1-1.3,4.4-2.8,6.9c-1.5,2.5-3.6,3.7-6.5,3.8h-0.6c-2.9-0.4-4.4-2.3-4.4-5.8c0.2-4.5,3.1-9.2,8.9-14c1.4-0.4,2.1,0.3,2.1,2
			c-6.4,5.7-9.1,10.2-7.9,13.6c0.4,0.8,1.1,1.3,2.3,1.3c3.7-1.3,5.9-5.8,6.7-13.7c0.2-0.5,0.4-0.9,0.9-1c0.4-0.1,0.9-0.1,1.4,0.1
			c1.7,0.3,3.3,0.6,4.9,0.8C102.4,245.2,103.4,245.4,106.7,245.9"/>
	</g>
	<path class="st0" d="M240.8,0.3l-30.9,85.9L165.1,47L240.8,0.3z M242.8,3.4l-30.5,84.9l30.5,26.7C242.8,64.7,242.8,52.3,242.8,3.4z
		 M159.6,46.4L83.7,0l31.2,85.8L159.6,46.4z M82.1,114.5l30.4-26.7L82.1,4.3C82.1,51.6,82.1,64.2,82.1,114.5z M208.2,88.4L162.4,48
		l-45.8,40.3l45.8,56.1L208.2,88.4z M210.4,90.3l-48,58.8l-48-58.8L83,118c26.7,26.8,53.4,53.6,79.7,80.1
		c26.4-26.5,53-53.2,79.4-79.8L210.4,90.3z"/>
</g>
</svg>
