<?xml version="1.0" encoding="utf-8"?>
<!-- Generator: Adobe Illustrator 26.2.1, SVG Export Plug-In . SVG Version: 6.00 Build 0)  -->
<svg version="1.1" id="Layer_1" xmlns="http://www.w3.org/2000/svg" xmlns:xlink="http://www.w3.org/1999/xlink" x="0px" y="0px"
	 width="1467.5px" height="225.8px" viewBox="0 0 1467.5 225.8" style="enable-background:new 0 0 1467.5 225.8;"
	 xml:space="preserve">
<style type="text/css">
	.st0{fill:#020000;}
</style>
<g>
	<g>
		<path class="st0" d="M116.3,3.6c8.1,0,12.2,6.3,12.2,18.9c-3.9,30.2-8.8,47.7-14.5,52.4c-1.8,0.9-3.4,0.9-4.9,0
			c-1.9-1-2.5-2.5-1.8-4.5c5.9-17.4,10-34.1,12.2-50.1c-1-4.5-2.1-6.7-3.2-6.7C98.9,13.6,71,47,32.6,113.9
			c-12.6,28-18.9,49.5-18.9,64.7c0,22.3,12.3,33.4,36.8,33.4h2.2c32.6,0,87.2-20.1,163.9-60.2c2.4,0.2,4,0.8,4.6,2
			c0.7,2.2,0.5,3.9-0.7,5.2c-3.4,3.6-30,16.8-79.9,39.7c-37.5,15.6-67.6,23.4-90.3,23.4c-31.3,0-46.9-14.9-46.9-44.6
			c0-35,22.7-82.2,68.1-141.6C92.2,14.4,107,3.6,116.3,3.6z"/>
		<path class="st0" d="M50.5,225.7C17.5,225.7,0,209,0,177.5c0-35.6,23.2-84,68.8-143.8C90.5,10.9,105.9,0,116.3,0
			c7.2,0,15.8,3.9,15.8,22.5l0,0.5c-5.4,41.9-11.6,51.3-15.7,54.7l-0.6,0.4c-2.9,1.5-5.9,1.5-8.5-0.1c-3.2-1.8-4.5-5.1-3.3-8.7
			c5.7-16.9,9.7-33.3,12-48.8c-0.4-1.6-0.7-2.6-1-3.2c-11.5,1.4-34.3,20.3-79.1,98.5c-12.2,27.1-18.5,48.3-18.5,62.9
			c0,20.3,10.5,29.8,33.2,29.8h2.2c31.8,0,86.4-20.1,162.3-59.8l0.9-0.5l1,0.1c3.7,0.3,6.2,1.5,7.5,3.7l0.3,0.6
			c1.6,4.6-0.2,7.5-1.5,8.8c-2.6,2.7-14.1,9.8-81,40.5C104.3,217.7,73.5,225.7,50.5,225.7z M116.3,7.2c-5.6,0-17.5,5.4-42,31.2
			C29.8,96.6,7.2,143.5,7.2,177.5c0,27.6,14.2,41,43.3,41c22.1,0,52-7.8,88.9-23.2c64.4-29.6,76.9-37.1,78.6-38.9
			c0.1-0.1,0.2-0.2,0.1-0.8c-0.1,0-0.4-0.1-0.7-0.2C139.9,195.9,86,215.6,52.7,215.6h-2.2c-26.4,0-40.4-12.8-40.4-37
			c0-15.8,6.3-37.5,19.3-66.2C69.5,42.4,97.1,10,116.3,10c4.2,0,5.7,4.9,6.7,9.5l0.1,0.6l-0.1,0.7c-2.3,16.1-6.4,33.2-12.4,50.8
			c0.5,0.4,0.7,0.6,1.3,0.3c2.9-2.7,8.1-12.8,12.9-49.6C124.9,7.2,118.6,7.2,116.3,7.2z"/>
	</g>
	<path class="st0" d="M317.6,152.6c18.2,2.1,19.6,2,36.8,0.9c21.8-1.4,35.1-9,35.1-9c2.4-0.7,11.4,9.4,2.5,13.4
		c-11.7,6.3-28.3,7.8-28.8,7.9c-13.2,2.6-35.6,0.8-35.6,0.8c-14.1-1-28.2-3-43.8-5.8c-7.5-1.3-15.2-2.5-23.1-3.8
		c-0.2,1.4-1,6-2.4,13.9c-0.2,0.8-0.4,1.7-0.5,2.6c-1.7,9.5-6,19.9-12.7,31.3c-6.6,11.2-16.4,17-29.4,17.4H213
		c-13.3-1.6-20-10.4-20-26.4c0.7-20.6,14.1-41.8,40.3-63.4c6.1-1.7,9.4,1.3,9.7,9c-29.2,25.8-41.2,46.5-36,62
		c1.6,3.8,5,5.7,10.3,5.7c16.7-5.8,26.8-26.6,30.4-62.4c0.7-2.3,2-3.9,4-4.7c2-0.3,4.1-0.2,6.3,0.3c7.6,1.3,15.1,2.5,22.4,3.8
		C298,149.4,302.4,150.3,317.6,152.6"/>
	<g>
		<path class="st0" d="M612.9,45.9h1.2c4.4,0.7,6.6,3.7,6.6,8.9V58c0,12.4-8.2,31.5-24.5,57.2c-6,10-17.5,23.9-34.6,41.9
			c-2,0-4.7,6.2-8.2,18.5c-4,11.6-6,21.2-6,28.8c0,4.9,1.4,7.4,4.2,7.4c38.8,0,97.3-13.6,218.7-55.3h0.3c2.7,0,4.4,1.8,5.2,5.5
			c0,3.2-3.8,5.6-11.5,7.4c-116.4,40.2-173,53.1-212.7,53.1c-6.6,0-11.1-3.7-13.7-11.1c-0.5-2.4-0.8-4.2-0.8-5.5v-4.2
			c0-20.3,14.4-58.4,43.2-114.2c6.7-12.6,14.8-25.2,24.5-37.7C608.1,47.2,610.8,45.9,612.9,45.9z M607.3,60.7
			c-2.9,2.7-26.6,43.7-38.4,70.5c44.4-37.8,44.7-75,44.7-75L607.3,60.7z"/>
		<path class="st0" d="M551.7,224.5c-7.5,0-12.7-4.2-15.6-12.4c-0.6-2.7-0.9-4.7-0.9-6.2v-4.2c0-20.8,14.2-58.5,43.5-115.1
			c6.7-12.7,15-25.4,24.7-38c3.9-3.3,6.9-4.8,9.6-4.8h1.2c4.1,0.6,8.6,3,8.6,10.9V58c0,12.9-8.1,32-24.8,58.3
			c-6,10-17.7,24.2-34.9,42.2l-0.6,0.6h-0.8c0,0.1-2,2.1-6.3,17c-3.9,11.4-5.9,20.9-5.9,28.2c0,3.6,0.7,5.4,2.2,5.4
			c40.6,0,103.8-16,218-55.2l0.6-0.1c2.9,0,6.2,1.2,7.5,7.1c0,6.8-9.8,9-13,9.7C654.1,209.6,594.3,224.5,551.7,224.5z M613.9,47.8
			l-0.9,0c-1.2,0-3.3,0.6-6.7,3.5c-9.2,12.1-17.4,24.7-24,37.1c-28.5,55.3-43,93.4-43,113.3v4.2c0,1.2,0.2,2.9,0.7,5.1
			c2.2,6.3,6.1,9.5,11.8,9.5c42.1,0,101.5-14.9,212-53c6.6-1.5,10.2-3.5,10.2-5.5c-0.8-3.6-2.5-3.6-3.3-3.6
			c-114.3,39.2-177.9,55.3-219,55.3c-2.8,0-6.1-1.6-6.1-9.4c0-7.8,2.1-17.7,6.1-29.4c4.5-15.8,7-19.1,9.1-19.7
			c16.7-17.5,28.1-31.3,33.9-41C610.7,88.9,618.8,70,618.8,58v-3.2C618.8,49.3,616.2,48.2,613.9,47.8z M563.6,138.2l3.5-7.9
			c11.2-25.5,35.4-67.8,38.8-71.1l0.2-0.2l9.5-6.8l0,3.9c0,1.6-0.8,38.5-45.4,76.5L563.6,138.2z M608.6,62.2
			C606,65,587,97.4,574.7,123.3c28.6-27.2,35.1-53.2,36.6-63L608.6,62.2z"/>
	</g>
	<g>
		<path class="st0" d="M938.5,3.6c8.1,0,12.2,6.3,12.2,18.9c-3.9,30.2-8.8,47.7-14.5,52.4c-1.8,0.9-3.4,0.9-4.9,0
			c-1.9-1-2.5-2.5-1.8-4.5c5.9-17.4,10-34.1,12.2-50.1c-1-4.5-2.1-6.7-3.2-6.7c-17.4,0-45.3,33.5-83.7,100.4
			c-12.6,28-18.9,49.5-18.9,64.7c0,22.3,12.3,33.4,36.8,33.4h2.2c32.6,0,87.2-20.1,163.9-60.2c2.4,0.2,4,0.8,4.6,2
			c0.7,2.2,0.5,3.9-0.7,5.2c-3.4,3.6-30,16.8-79.9,39.7c-37.5,15.6-67.6,23.4-90.3,23.4c-31.3,0-46.9-14.9-46.9-44.6
			c0-35,22.7-82.2,68.1-141.6C914.4,14.4,929.3,3.6,938.5,3.6z"/>
		<path class="st0" d="M872.7,225.7c-33,0-50.5-16.7-50.5-48.2c0-35.6,23.1-84,68.8-143.8C912.7,10.9,928.1,0,938.5,0
			c7.2,0,15.8,3.9,15.8,22.5l0,0.5c-5.4,41.9-11.6,51.3-15.7,54.7l-0.6,0.4c-2.9,1.5-5.9,1.5-8.5-0.1c-3.2-1.8-4.5-5.1-3.3-8.7
			c5.7-16.9,9.7-33.3,12-48.8c-0.4-1.6-0.7-2.6-1-3.2c-11.5,1.4-34.3,20.3-79.1,98.5c-12.2,27.1-18.5,48.3-18.5,62.9
			c0,20.3,10.5,29.8,33.2,29.8h2.2c31.8,0,86.4-20.1,162.3-59.8l0.9-0.5l1,0.1c3.7,0.3,6.2,1.5,7.5,3.7l0.3,0.6
			c1.6,4.6-0.2,7.5-1.5,8.8c-2.6,2.7-14.1,9.8-81,40.5C926.6,217.7,895.7,225.7,872.7,225.7z M938.5,7.2c-5.6,0-17.5,5.4-42,31.2
			c-44.4,58.2-67.1,105.1-67.1,139.1c0,27.6,14.2,41,43.3,41c22.1,0,52-7.8,88.9-23.2c64.4-29.6,76.9-37.1,78.6-38.9
			c0.1-0.1,0.2-0.2,0.1-0.8c-0.1,0-0.4-0.1-0.8-0.2c-76.4,39.9-131.8,60.1-164.6,60.1h-2.2c-26.4,0-40.4-12.8-40.4-37
			c0-15.8,6.3-37.5,19.3-66.2C891.7,42.4,919.3,10,938.5,10c4.2,0,5.7,4.9,6.7,9.5l0.2,0.6l-0.1,0.7c-2.3,16.1-6.4,33.2-12.4,50.8
			c0.5,0.4,0.7,0.5,1.3,0.3c2.9-2.7,8.1-12.8,12.9-49.6C947.1,7.2,940.9,7.2,938.5,7.2z"/>
	</g>
	<path class="st0" d="M1085.7,129.1c13,0.3,19.9,2.9,20.8,7.9c0.3,4-0.1,7.2-1.1,9.4l1.1-1.3c4.8-7.4,10.1-11.1,15.9-11.1
		c3.5,0.8,5.2,3.4,4.9,7.9c-7.1,16.6-15.1,33.5-14.4,51c1,23.6,31.5,15.6,31.5,15.6c28.5-5.6,53.8-15.9,75.9-28
		c4.5-1.5,3.8,6.1,5.4,8.5c1.9,3.1,19.7,1.9-54,27.8c-11.7,3.1-23.9,5.8-36.7,7.9h-7.9c-17.6-1.3-27.6-11.7-29.9-31.4
		c0-8.9,2-18.1,5.9-27.6c-23.4,15.5-44.7,24.5-63.9,27c-13.9-1.4-20.8-7.2-20.8-17.6c0-12.1,13.4-25.4,40.1-39.9
		C1066.5,132.3,1075.5,130.2,1085.7,129.1z M1034.7,173.8c-1.1,2.6,1.5,3.7,7.9,3.2c20.4-3.1,40.1-13.3,59.1-30.4l-11.3-1.5h-6.2
		C1064.4,145.1,1047.9,154.7,1034.7,173.8z"/>
	<g>
		<path class="st0" d="M1389.1,192.2c-52.9,21.8-93.6,32.7-122.2,32.7h-5.8c-30.3,0-45.6-16.1-45.8-48.2c0.2-4.1,1.8-10.8,4.6-20.1
			c6.2-19.1,20.6-56.6,24-62.2c2.4-2.7,5.5-3.1,9.4-1.2c2.7,1.8,3.5,4.5,2.2,8.2c-1.1,1.5-13.9,34.8-19.2,49.6l89.9-13.9
			c1.7-0.1,3.1,0.3,4.3,1.2c1.1,0.8,1.7,2.6,1.7,5.3c0,2.7-1.2,4.4-3.6,5.1l-96,14.8c-1.4,5.8-2.3,10.7-2.7,14.6
			c0,21.8,11.4,32.7,34.2,32.7h9.9c23.5,0,60.3-10.2,110.3-30.6c22.4-9.9,47-21.5,73.7-34.7c2.2-0.8,4.1-0.9,6-0.2
			c1.9,0.5,2.8,2.4,2.7,6c0,4.9-25.7,18.5-77.2,40.8L1389.1,192.2z"/>
		<path class="st0" d="M1266.9,225.8h-5.8c-30.7,0-46.5-16.5-46.7-49.1c0.2-4.2,1.8-11,4.6-20.3c6.1-18.7,20.5-56.6,24-62.4
			c2.8-3.2,6.3-3.7,10.5-1.5c2.2,1.5,4.4,4.2,2.7,9.3l-0.1,0.3c-1.1,1.6-12.7,31.9-18.5,48l88.4-13.7c2-0.1,3.6,0.3,5,1.4
			c1.4,1,2,2.9,2,6c0,3.1-1.5,5.2-4.2,6l-95.6,14.7c-1.3,5.5-2.1,10.2-2.6,13.9c0,21.3,10.9,31.7,33.3,31.7h9.9
			c23.3,0,60.3-10.3,110-30.5c22.3-9.8,47.1-21.5,73.7-34.7c2.4-0.9,4.7-1,6.7-0.2c2.3,0.5,3.4,2.8,3.3,6.8
			c0,3.4-8.1,11.4-77.7,41.6l-0.3,0.1C1336.7,214.7,1295.4,225.8,1266.9,225.8z M1248.8,92.9c-1.7,0-3.1,0.7-4.3,2.1
			c-3.4,5.6-17.7,43.3-23.8,61.9c-2.8,9.2-4.3,15.9-4.6,19.9c0.2,31.8,14.9,47.2,44.9,47.2h5.8c28.3,0,69.3-11,121.9-32.6l0.3-0.1
			c66.7-28.9,76.7-37.5,76.7-40c0.1-3-0.6-4.7-2-5.1c-1.7-0.6-3.5-0.6-5.4,0.1c-26.5,13.1-51.3,24.8-73.7,34.7
			c-49.9,20.3-87.1,30.7-110.7,30.7h-9.9c-23.3,0-35.1-11.3-35.1-33.6c0.5-4.1,1.4-9,2.7-14.8l0.1-0.6l0.6-0.1l96-14.8
			c1.9-0.5,2.8-1.9,2.8-4.2c0-2.4-0.5-3.9-1.3-4.5c-1-0.8-2.2-1.2-3.7-1l-91.3,14.1l0.5-1.4c4.8-13.5,17.5-46.7,19.2-49.7
			c1.1-3.2,0.4-5.5-1.9-7C1251.3,93.2,1250,92.9,1248.8,92.9z"/>
	</g>
	<path class="st0" d="M485.1,152.6c18.2,2.1,19.6,2,36.8,0.9c21.8-1.4,35.1-9,35.1-9c2.4-0.7,11.4,9.4,2.5,13.4
		c-11.7,6.3-28.3,7.8-28.8,7.9c-13.2,2.6-35.6,0.8-35.6,0.8c-14.1-1-28.2-3-43.8-5.8c-7.5-1.3-15.2-2.5-23.1-3.8
		c-0.2,1.4-1,6-2.4,13.9c-0.2,0.8-0.4,1.7-0.5,2.6c-1.7,9.5-6,19.9-12.7,31.3c-6.6,11.2-16.4,17-29.4,17.4h-2.8
		c-13.3-1.6-20-10.4-20-26.4c0.7-20.6,14.1-41.8,40.3-63.4c6.1-1.7,9.4,1.3,9.7,9c-29.2,25.8-41.2,46.5-36,62
		c1.6,3.8,5,5.7,10.3,5.7c16.7-5.8,26.8-26.6,30.4-62.4c0.7-2.3,2-3.9,4-4.7c2-0.3,4.1-0.2,6.3,0.3c7.6,1.3,15.1,2.5,22.4,3.8
		C465.5,149.4,470,150.3,485.1,152.6"/>
</g>
</svg>
