<?xml version="1.0" encoding="utf-8"?>
<!-- Generator: Adobe Illustrator 26.2.1, SVG Export Plug-In . SVG Version: 6.00 Build 0)  -->
<svg version="1.1" id="Layer_1" xmlns="http://www.w3.org/2000/svg" xmlns:xlink="http://www.w3.org/1999/xlink" x="0px" y="0px"
	 width="419.6px" height="61.9px" viewBox="0 0 419.6 61.9" style="enable-background:new 0 0 419.6 61.9;" xml:space="preserve">
<g>
	<g>
		<g>
			<path d="M31.9,1c2.2,0,3.3,1.7,3.3,5.2c-1.1,8.3-2.4,13.1-4,14.3c-0.5,0.3-0.9,0.3-1.3,0c-0.5-0.3-0.7-0.7-0.5-1.2
				c1.6-4.8,2.7-9.3,3.3-13.7c-0.3-1.2-0.6-1.8-0.9-1.8c-4.8,0-12.4,9.2-22.9,27.5c-3.5,7.7-5.2,13.6-5.2,17.7
				c0,6.1,3.4,9.2,10.1,9.2h0.6c8.9,0,23.9-5.5,44.9-16.5c0.7,0.1,1.1,0.2,1.3,0.5c0.2,0.6,0.1,1.1-0.2,1.4
				c-0.9,1-8.2,4.6-21.9,10.9c-10.3,4.3-18.5,6.4-24.7,6.4C5.3,60.9,1,56.8,1,48.6C1,39,7.2,26.1,19.6,9.8C25.3,3.9,29.3,1,31.9,1z"
				/>
			<path d="M13.8,61.8C4.8,61.8,0,57.3,0,48.6c0-9.8,6.3-23,18.9-39.4l0.1-0.1C24.8,3,29,0,31.9,0c2,0,4.3,1.1,4.3,6.2l0,0.1
				c-1.5,11.5-3.2,14-4.3,15l-0.2,0.1c-0.8,0.4-1.6,0.4-2.3,0c-0.9-0.5-1.2-1.4-0.9-2.4c1.6-4.6,2.7-9.1,3.3-13.4
				c-0.1-0.4-0.2-0.7-0.3-0.9c-3.1,0.4-9.4,5.6-21.7,27c-3.3,7.4-5.1,13.2-5.1,17.2c0,5.6,2.9,8.2,9.1,8.2h0.6
				c8.7,0,23.7-5.5,44.5-16.4l0.3-0.1l0.3,0c1,0.1,1.7,0.4,2,1l0.1,0.2c0.4,1.3-0.1,2.1-0.4,2.4C60.4,45,57.3,46.9,39,55.3
				C28.6,59.7,20.1,61.8,13.8,61.8z M20.4,10.5C8.2,26.5,2,39.3,2,48.6c0,7.6,3.9,11.2,11.9,11.2c6,0,14.2-2.1,24.4-6.3
				c17.6-8.1,21.1-10.2,21.5-10.7c0,0,0.1-0.1,0-0.2c0,0-0.1,0-0.2,0c-21.2,11.1-36,16.5-45.1,16.5h-0.6c-7.2,0-11.1-3.5-11.1-10.1
				c0-4.3,1.7-10.3,5.3-18.1C19,11.6,26.6,2.7,31.9,2.7c1.1,0,1.6,1.3,1.8,2.6l0,0.2l0,0.2c-0.6,4.4-1.8,9.1-3.4,13.9
				c-0.1,0,0,0,0,0.1c0.1,0.1,0.2,0.1,0.3,0c0.8-0.7,2.2-3.5,3.5-13.6C34.2,2,32.5,2,31.9,2C30.3,2,27.1,3.4,20.4,10.5z"/>
		</g>
		<path d="M87,41.8c5,0.6,5.4,0.5,10.1,0.2c6-0.4,9.6-2.5,9.6-2.5c0.7-0.2,3.1,2.6,0.7,3.7c-3.2,1.7-7.7,2.1-7.9,2.2
			c-3.6,0.7-9.8,0.2-9.8,0.2c-3.9-0.3-7.7-0.8-12-1.6c-2.1-0.3-4.2-0.7-6.3-1c-0.1,0.4-0.3,1.7-0.7,3.8c-0.1,0.2-0.1,0.5-0.1,0.7
			c-0.5,2.6-1.6,5.5-3.5,8.6c-1.8,3.1-4.5,4.7-8,4.8h-0.8c-3.6-0.4-5.5-2.9-5.5-7.2c0.2-5.6,3.9-11.4,11-17.4
			c1.7-0.5,2.6,0.3,2.7,2.5c-8,7.1-11.3,12.7-9.9,17c0.4,1,1.4,1.6,2.8,1.6c4.6-1.6,7.3-7.3,8.3-17.1c0.2-0.6,0.6-1.1,1.1-1.3
			c0.5-0.1,1.1-0.1,1.7,0.1c2.1,0.3,4.1,0.7,6.1,1C81.7,40.9,82.9,41.2,87,41.8"/>
		<g>
			<path d="M168,12.6h0.3c1.2,0.2,1.8,1,1.8,2.4v0.9c0,3.4-2.2,8.6-6.7,15.7c-1.6,2.7-4.8,6.5-9.5,11.5c-0.5,0-1.3,1.7-2.2,5.1
				c-1.1,3.2-1.6,5.8-1.6,7.9c0,1.3,0.4,2,1.1,2c10.6,0,26.7-3.7,59.9-15.2h0.1c0.7,0,1.2,0.5,1.4,1.5c0,0.9-1.1,1.5-3.2,2
				c-31.9,11-47.4,14.6-58.3,14.6c-1.8,0-3-1-3.8-3c-0.1-0.6-0.2-1.2-0.2-1.5v-1.1c0-5.6,3.9-16,11.8-31.3c1.8-3.5,4.1-6.9,6.7-10.3
				C166.6,12.9,167.4,12.6,168,12.6z M166.4,16.6c-0.8,0.7-7.3,12-10.5,19.3c12.2-10.4,12.3-20.6,12.3-20.6L166.4,16.6z"/>
			<path d="M151.2,61.5c-2,0-3.5-1.1-4.3-3.4c-0.2-0.8-0.2-1.3-0.2-1.7v-1.1c0-5.7,3.9-16,11.9-31.5c1.8-3.5,4.1-7,6.8-10.4l0.1-0.1
				c1-0.8,1.8-1.2,2.5-1.2h0.3c1.1,0.2,2.4,0.8,2.4,3v0.9c0,3.5-2.2,8.8-6.8,16c-1.6,2.7-4.9,6.6-9.6,11.6l-0.2,0.2H154
				c-0.2,0.1-0.7,0.9-1.8,4.7c-1.1,3.1-1.6,5.7-1.6,7.7c0,1,0.2,1.5,0.6,1.5c11.1,0,28.4-4.4,59.7-15.1l0.2,0c0.8,0,1.7,0.3,2,1.9
				l0,0.1c0,1.7-2.7,2.3-3.6,2.5C179.2,57.4,162.8,61.5,151.2,61.5z M166.2,14c-2.6,3.4-4.8,6.8-6.6,10.2
				c-7.8,15.1-11.8,25.6-11.8,31v1.1c0,0.3,0.1,0.8,0.2,1.4c0.6,1.7,1.7,2.6,3.2,2.6c11.5,0,27.8-4.1,58.1-14.5
				c1.7-0.4,2.7-0.9,2.8-1.5c-0.2-1-0.7-1-0.9-1c-31.3,10.8-48.7,15.2-60,15.2c-0.8,0-1.7-0.4-1.7-2.6c0-2.1,0.6-4.8,1.7-8.1
				c1.2-4.3,1.9-5.2,2.5-5.4c4.6-4.8,7.7-8.6,9.3-11.2c4.4-6.9,6.6-12.1,6.6-15.4V15c0-1.5-0.7-1.8-1.4-1.9l-0.3,0
				C167.6,13.1,167.1,13.3,166.2,14z M154.4,37.9l0.9-2.2c3.1-7,9.7-18.6,10.6-19.5l0.1,0l2.6-1.9l0,1.1c0,0.4-0.2,10.6-12.4,21
				L154.4,37.9z M166.8,17c-0.7,0.8-5.9,9.7-9.3,16.8c7.8-7.5,9.6-14.6,10-17.3L166.8,17z"/>
		</g>
		<g>
			<path d="M257.2,1c2.2,0,3.3,1.7,3.3,5.2c-1.1,8.3-2.4,13.1-4,14.3c-0.5,0.3-0.9,0.3-1.3,0c-0.5-0.3-0.7-0.7-0.5-1.2
				c1.6-4.8,2.7-9.3,3.3-13.7c-0.3-1.2-0.6-1.8-0.9-1.8c-4.8,0-12.4,9.2-22.9,27.5c-3.5,7.7-5.2,13.6-5.2,17.7
				c0,6.1,3.4,9.2,10.1,9.2h0.6c8.9,0,23.9-5.5,44.9-16.5c0.7,0.1,1.1,0.2,1.3,0.5c0.2,0.6,0.1,1.1-0.2,1.4
				c-0.9,1-8.2,4.6-21.9,10.9c-10.3,4.3-18.5,6.4-24.7,6.4c-8.6,0-12.8-4.1-12.8-12.2c0-9.6,6.2-22.5,18.7-38.8
				C250.6,3.9,254.6,1,257.2,1z"/>
			<path d="M239.1,61.8c-9,0-13.8-4.6-13.8-13.2c0-9.8,6.3-23,18.9-39.4l0.1-0.1C250.1,3,254.3,0,257.2,0c2,0,4.3,1.1,4.3,6.2l0,0.1
				c-1.5,11.5-3.2,14-4.3,15l-0.2,0.1c-0.8,0.4-1.6,0.4-2.3,0c-0.9-0.5-1.2-1.4-0.9-2.4c1.6-4.6,2.7-9.1,3.3-13.4
				c-0.1-0.4-0.2-0.7-0.3-0.9c-3.1,0.4-9.4,5.6-21.7,27c-3.3,7.4-5.1,13.2-5.1,17.2c0,5.6,2.9,8.2,9.1,8.2h0.6
				c8.7,0,23.7-5.5,44.5-16.4l0.2-0.1l0.3,0c1,0.1,1.7,0.4,2,1l0.1,0.2c0.4,1.3-0.1,2.1-0.4,2.4c-0.7,0.8-3.9,2.7-22.2,11.1
				C253.9,59.7,245.4,61.8,239.1,61.8z M245.7,10.5c-12.2,16-18.4,28.9-18.4,38.2c0,7.6,3.9,11.2,11.9,11.2c6,0,14.2-2.1,24.4-6.3
				c17.6-8.1,21.1-10.2,21.5-10.7c0,0,0.1-0.1,0-0.2c0,0-0.1,0-0.2,0c-21.2,11.1-36,16.5-45.1,16.5h-0.6c-7.2,0-11.1-3.5-11.1-10.1
				c0-4.3,1.7-10.3,5.3-18.1c11-19.2,18.5-28.1,23.8-28.1c1.1,0,1.6,1.3,1.8,2.6l0,0.2l0,0.2c-0.6,4.4-1.8,9.1-3.4,13.9
				c0,0,0,0,0,0.1c0.1,0.1,0.2,0.1,0.3,0c0.8-0.7,2.2-3.5,3.5-13.6c0-4.1-1.7-4.1-2.4-4.1C255.6,2,252.4,3.4,245.7,10.5z"/>
		</g>
		<path d="M297.5,35.4c3.6,0.1,5.5,0.8,5.7,2.2c0.1,1.1,0,2-0.3,2.6l0.3-0.4c1.3-2,2.8-3.1,4.4-3.1c1,0.2,1.4,0.9,1.3,2.2
			c-1.9,4.6-4.1,9.2-3.9,14c0.3,6.5,8.6,4.3,8.6,4.3c7.8-1.5,14.7-4.4,20.8-7.7c1.2-0.4,1,1.7,1.5,2.3c0.5,0.9,5.4,0.5-14.8,7.6
			c-3.2,0.9-6.6,1.6-10,2.2h-2.2c-4.8-0.3-7.6-3.2-8.2-8.6c0-2.5,0.5-5,1.6-7.6c-6.4,4.2-12.3,6.7-17.5,7.4c-3.8-0.4-5.7-2-5.7-4.8
			c0-3.3,3.7-7,11-10.9C292.2,36.3,294.7,35.7,297.5,35.4z M283.5,47.6c-0.3,0.7,0.4,1,2.2,0.9c5.6-0.9,11-3.6,16.2-8.3l-3.1-0.4
			h-1.7C291.7,39.8,287.1,42.4,283.5,47.6z"/>
		<g>
			<path d="M380.6,52.7c-14.5,6-25.7,9-33.5,9h-1.6c-8.3,0-12.5-4.4-12.5-13.2c0.1-1.1,0.5-3,1.3-5.5c1.7-5.2,5.6-15.5,6.6-17.1
				c0.7-0.7,1.5-0.9,2.6-0.3c0.7,0.5,0.9,1.2,0.6,2.2c-0.3,0.4-3.8,9.5-5.3,13.6l24.6-3.8c0.5,0,0.9,0.1,1.2,0.3
				c0.3,0.2,0.5,0.7,0.5,1.4c0,0.7-0.3,1.2-1,1.4l-26.3,4c-0.4,1.6-0.6,2.9-0.7,4c0,6,3.1,9,9.4,9h2.7c6.5,0,16.5-2.8,30.2-8.4
				c6.1-2.7,12.9-5.9,20.2-9.5c0.6-0.2,1.1-0.2,1.6,0c0.5,0.1,0.8,0.7,0.7,1.6C401.9,42.8,394.8,46.5,380.6,52.7L380.6,52.7z"/>
			<path d="M347.1,61.9h-1.6c-8.4,0-12.7-4.5-12.8-13.4c0.1-1.1,0.5-3,1.3-5.6c1.7-5.1,5.6-15.5,6.6-17.1c0.8-0.9,1.7-1,2.9-0.4
				c0.6,0.4,1.2,1.2,0.7,2.5l0,0.1c-0.3,0.4-3.5,8.7-5.1,13.1l24.2-3.8c0.6,0,1,0.1,1.4,0.4c0.4,0.3,0.6,0.8,0.6,1.6
				c0,0.9-0.4,1.4-1.2,1.6l-26.2,4c-0.3,1.5-0.6,2.8-0.7,3.8c0,5.8,3,8.7,9.1,8.7h2.7c6.4,0,16.5-2.8,30.1-8.4
				c6.1-2.7,12.9-5.9,20.2-9.5c0.7-0.2,1.3-0.3,1.8-0.1c0.6,0.1,0.9,0.8,0.9,1.9c0,0.9-2.2,3.1-21.3,11.4l-0.1,0
				C366.3,58.8,355,61.9,347.1,61.9z M342.2,25.4c-0.5,0-0.8,0.2-1.2,0.6c-0.9,1.5-4.8,11.9-6.5,17c-0.8,2.5-1.2,4.3-1.2,5.4
				c0.1,8.7,4.1,12.9,12.3,12.9h1.6c7.8,0,19-3,33.4-8.9l0.1,0c18.3-7.9,21-10.3,21-11c0-0.8-0.2-1.3-0.6-1.4c-0.5-0.2-1-0.2-1.5,0
				c-7.3,3.6-14.1,6.8-20.2,9.5c-13.7,5.6-23.9,8.4-30.3,8.4h-2.7c-6.4,0-9.6-3.1-9.6-9.2c0.1-1.1,0.4-2.5,0.8-4.1l0-0.2l26.5-4.1
				c0.5-0.1,0.8-0.5,0.8-1.2c0-0.6-0.1-1.1-0.4-1.2c-0.3-0.2-0.6-0.3-1-0.3l-25,3.9l0.1-0.4c1.4-3.8,4.8-12.8,5.3-13.6
				c0.3-0.9,0.1-1.5-0.5-1.9C342.9,25.5,342.5,25.4,342.2,25.4z"/>
		</g>
		<path d="M132.9,41.8c5,0.6,5.4,0.5,10.1,0.2c6-0.4,9.6-2.5,9.6-2.5c0.7-0.2,3.1,2.6,0.7,3.7c-3.2,1.7-7.7,2.1-7.9,2.2
			c-3.6,0.7-9.8,0.2-9.8,0.2c-3.9-0.3-7.7-0.8-12-1.6c-2.1-0.3-4.2-0.7-6.3-1c-0.1,0.4-0.3,1.7-0.7,3.8c-0.1,0.2-0.1,0.5-0.1,0.7
			c-0.5,2.6-1.6,5.5-3.5,8.6c-1.8,3.1-4.5,4.7-8,4.8h-0.8c-3.6-0.4-5.5-2.9-5.5-7.2c0.2-5.6,3.9-11.4,11-17.4
			c1.7-0.5,2.6,0.3,2.7,2.5c-8,7.1-11.3,12.7-9.9,17c0.4,1,1.4,1.6,2.8,1.6c4.6-1.6,7.3-7.3,8.3-17.1c0.2-0.6,0.6-1.1,1.1-1.3
			c0.5-0.1,1.1-0.1,1.7,0.1c2.1,0.3,4.1,0.7,6.1,1C127.6,40.9,128.8,41.2,132.9,41.8"/>
	</g>
	<g>
		<g>
			<path d="M417.4,32.1h-1.1l-1-1.4c-0.1,0-0.3,0-0.4,0h-0.6v1.4h-0.9v-5.8h1.5c1.6,0,2.5,0.9,2.5,2.2c0,0.9-0.4,1.6-1.2,1.9
				L417.4,32.1z M414.9,30c1.1,0,1.6-0.5,1.6-1.4c0-0.9-0.5-1.4-1.6-1.4h-0.5V30H414.9z"/>
		</g>
		<path d="M415.1,33.8c-2.5,0-4.5-2-4.5-4.5s2-4.5,4.5-4.5s4.5,2,4.5,4.5S417.6,33.8,415.1,33.8z M415.1,25.6c-2,0-3.7,1.7-3.7,3.7
			c0,2,1.7,3.7,3.7,3.7s3.7-1.7,3.7-3.7C418.8,27.3,417.2,25.6,415.1,25.6z"/>
	</g>
</g>
</svg>
