<?xml version="1.0" encoding="utf-8"?>
<!-- Generator: Adobe Illustrator 26.2.1, SVG Export Plug-In . SVG Version: 6.00 Build 0)  -->
<svg version="1.1" id="Layer_1" xmlns="http://www.w3.org/2000/svg" xmlns:xlink="http://www.w3.org/1999/xlink" x="0px" y="0px"
	 width="185px" height="113.8px" viewBox="0 0 185 113.8" style="enable-background:new 0 0 185 113.8;" xml:space="preserve">
<path d="M138.7,66l-2.3,0.4c-1.2,0.2-2.3,1.2-2.5,2.3l-1.5,10c-0.1,0.5,0.1,1,0.4,1.3c0.3,0.3,0.8,0.5,1.3,0.4h0.2l2.2-0.3
	c1.2-0.2,2.3-1.2,2.5-2.3l1.5-9.9c0.1-0.5-0.1-1-0.4-1.3C139.9,66,139.4,65.9,138.7,66 M138.3,68.2l-1.5,9.6c0,0.2-0.2,0.4-0.4,0.4
	l-1.2,0.2l-0.2-0.1l-0.1-0.2l1.5-9.6c0-0.2,0.3-0.4,0.4-0.4l1.2-0.2l0,0l0.2,0.1L138.3,68.2"/>
<path d="M149.5,64.2l-2.2,0.3c-1.2,0.1-2.2,1.1-2.4,2.2L143.4,77c-0.1,0.5,0.1,1,0.4,1.3c0.3,0.3,0.8,0.5,1.3,0.4h0.2l2.2-0.3
	c1.2-0.2,2.2-1.2,2.4-2.3l1.5-10.2c0.1-0.5-0.1-1-0.4-1.3C150.6,64.3,150.1,64.1,149.5,64.2 M149,66.3l-1.5,9.9
	c0,0.2-0.2,0.4-0.4,0.4l-1.3,0.2l-0.2-0.1l-0.1-0.2l1.5-9.9c0-0.2,0.2-0.4,0.4-0.4l1.2-0.2l0.2,0.1L149,66.3"/>
<path d="M172.7,61.1c-0.3-0.3-0.8-0.5-1.4-0.5l-2,0.3c-1.1,0.1-2.1,1.1-2.2,2.1l-0.5,3.4c-0.2,1.4,0.7,1.9,1.5,2.3l1.4,0.8
	c0.4,0.2,0.2,1.1,0.1,1.6l-0.3,2c0,0.2-0.2,0.4-0.4,0.4l-1.1,0.2l-0.2-0.1v-0.2l0.3-2.2l-2.2,0.3l-0.3,2.3c-0.1,0.5,0.1,0.9,0.4,1.2
	c0.3,0.3,0.7,0.4,1.2,0.4h0.2l2-0.3c1.1-0.2,2.1-1.1,2.2-2.2l0.4-3.3c0.2-1.3-0.6-1.9-1.5-2.3l-1.4-0.7c-0.2-0.1-0.3-0.3-0.3-0.7
	l0.4-3c0-0.2,0.2-0.3,0.4-0.4l1.1-0.2l0.2,0.1v0.2l-0.4,2.4l2.1-0.3l0.3-2.5C173.1,61.8,173,61.4,172.7,61.1"/>
<path d="M162.6,62.8c-0.3-0.3-0.8-0.6-1.4-0.5l-5.4,0.9l-0.3,1.8l1.3-0.2l-1.6,10.8l-1.3,0.2l-0.2,1.8l1.3-0.2l0,0l4.2-0.6
	c1.1-0.2,2.1-1.2,2.3-2.2l1.5-10.5C163,63.5,162.9,63.1,162.6,62.8 M159.3,74.6c0,0.2-0.2,0.4-0.4,0.4l-1.4,0.2l1.6-10.8l1.5-0.2
	l0,0l0.2,0.1v0.2L159.3,74.6z"/>
<polygon points="130.1,70.7 130.6,67.3 121.9,68.7 121.6,70.5 123.5,70.2 122,80.2 120.1,80.5 119.8,82.3 126,81.4 126.2,79.6 
	124.4,79.9 125.1,75.6 127.7,75.2 128,73.3 125.4,73.7 126,69.8 126,69.8 128.4,69.4 128.1,71 "/>
<path d="M144,35.2c0,0.1,0,0.3-0.1,0.6C144,35.5,144,35.4,144,35.2"/>
<path d="M179.3,25.3c-2.5-4.1-4.1-7.8-2.1-12.8c0,0-4.3,0.1-7.5,4.2c-2.1,2.7-2,5.9-0.8,8.9c1.3,3,3.9,4.8,5.6,7.5
	c1.9,3,1.2,7.8-2,9.9c-2.6,1.7-7.7,1.2-8.9-1.9c0.7-0.8,3.1-3.4,3.1-3.5c3.6-4,0.8-7.5-3.3-5.5c-1.4,0.7-2.4,2-3.1,3.4
	c-0.3,0.7-0.6,1.6-0.7,2.4c-0.1,1.3-0.2,2.3-0.2,3.2c-1.4,1.6-3.1,3.2-4.2,4c-5.8,4.2-9.7,1.1-10.8-1.5c-0.3-0.5-0.4-1.2-0.5-1.9
	c1.5-0.7,2.8-1.4,4-2.2c1.8-1.1,3.9-2.5,5.9-4.1c0.1-0.1,0.2-0.2,0.2-0.2l0,0c1.4-1.2,2.6-2.4,3.5-3.8c3.8-5.5,0.6-10.6-3.4-10.8
	c-6-0.3-11.2,3.1-14.8,7.9c-2.6,3.5-4.5,7.6-5.1,11.9c-0.1,0.4-0.1,0.7-0.1,1.1c-1.7,0.1-3.3,0-4.5-0.3c0.6-2,1.1-4,1.5-5.5
	c0.9-3.6,1.6-11.3-2.6-11.1c-4.2,0.2-6.7,4.3-7.4,9.6c-0.8,5.7,3.3,8.4,3.3,8.4c0.1,0.1-3.7,10.7-8.9,10.1c-2.7-0.3-1.6-5.1-1.2-8
	c0.9-6.6,4.8-17.9,4.8-17.9l-5.6,0.9l-4.4,0.7c0,0-0.2,0.3-0.5,1.1c-0.6,1.5-1.8,4.4-2.8,9c-0.1,0.6-0.3,1.3-0.4,1.9
	c-0.1,0.4-0.2,0.9-0.3,1.3c-0.2,0.9-0.4,1.9-0.5,2.8c-0.1,0.5-0.2,1.1-0.2,1.6c-0.3,2.2-0.4,4.2-0.4,5.9c0,0.1,0,0.3,0,0.4
	c-1.4,1.8-3.2,3.1-5.1,2.8c-1.5-0.2-1.8-1.7-1.7-3.5c0.1-1.5,0.4-3.1,0.6-4.4c0.9-6.6,4.8-17.9,4.8-17.9l-10,1.7c0,0-0.1,0.2-0.5,1
	c-0.1,0.2-0.2,0.4-0.3,0.7c-3.9,7.5-8.5,8.4-8.5,8.4l0,0c0-0.2,0-0.4-0.1-0.6c-0.1-0.6-0.3-1.3-0.5-1.9c-0.9-2.6-3-4.3-5.5-5
	L77,33.6c-0.8-0.2-1.7-0.3-2.6-0.3c-0.3,0-0.6,0-0.9,0c-5.1,0.5-9.5,3.6-12.6,7.8c-0.7,0.9-1.4,1.9-2,3c-1.8,3-3,6.5-3.4,10
	c-0.1,1-0.2,2.1-0.1,3.1l0,0v0.1c0.1,1.7,0.4,3.6,1.2,5.1c0.1,0.1,0.1,0.3,0.2,0.4l0,0c0.1,0.2,0.2,0.3,0.3,0.5l0.1,0.2
	c0.2,0.2,0.4,0.4,0.6,0.6l0,0c0.1,0.1,0.2,0.2,0.3,0.3c1.7,1.6,4,2.4,6.4,2.5c3,0.2,6.2-0.7,8.7-2.3c1.4-0.9,2.9-2.1,3.9-3.4
	l0.2-0.2c2.1-2.6,3.7-5.5,4.7-8.7c0.1-0.2,0.1-0.4,0.2-0.7s0.1-0.5,0.2-0.8c0.5-1.9,0.9-4,1-6.2c3.3-1.1,5.3-2.9,5.8-3.4
	c-0.1,0.6-0.2,1-0.4,1.6c-0.3,1.3-0.6,2.7-0.8,4.1c-0.1,0.5-0.2,1.1-0.2,1.6c-0.3,2.2-0.4,4.2-0.4,5.9l0,0c0,6.7,5,7.9,9.3,7.4
	c1-0.1,2-0.3,2.9-0.6c2.5-0.7,4.6-2.1,6.4-4c2.5,2.5,7.1,2.2,10.3,1.3c6.5-1.8,10.1-8.4,12.4-14.6c1.4,0.3,3.2,0.4,5.4,0.2
	c0,1.7,0.3,3.3,0.9,4.8c0.3,0.7,0.4,1,0.9,1.6c5.8,7.3,15.9,1.6,21-3.3c1-0.9,2.2-2.1,3.3-3.3l0.4-0.4c4.2,8.3,21.6,8.4,24.1-4.6
	C186,33.1,181.7,29.2,179.3,25.3 M73.2,57.4c-2.1,1.1-4.7,1.1-6.5-0.4c-0.4-0.4-0.8-0.8-1.1-1.3l-0.1-0.2c-1.5-2.8-1-7.2-0.1-9.8
	c0.2-0.5,0.4-1,0.6-1.4c0.1-0.2,0.2-0.4,0.3-0.6c1.4-2.7,3.3-4.4,4.9-5.2l0,0c1.5-0.8,2.7-1,3.2-0.8c-0.7,0.8-2.8,3.7-0.5,6.6
	c0.8,1.1,2.1,1.7,3.7,1.8c0.1,0,0.3,0,0.4,0v0.1C78.4,52.7,74.8,56.6,73.2,57.4 M144,35c0-0.2,0-0.4,0.1-0.6
	c0.3-2.3,1.5-5.4,2.1-6.3c0.8-1.2,2.4-3.3,3.9-2.6c0.2,0.1,0.4,0.2,0.5,0.4c0.6,0.6,0.8,1.3,0.8,2.1c0,0.5,0,1.1-0.2,1.8
	c-0.2,0.9-0.9,2.1-1.9,3.3s-2.9,3.2-5.5,5C143.8,36.9,143.9,35.7,144,35"/>
<path d="M83.5,75.9c-3.5,0.6-8.5,1.4-13.8,2.3c-3.9,0.6-15.1,2.7-27,4.9l8.4-52.6c0,0,12.4-0.7,18.1-8c4-5.1,4.6-11.4,1.6-16.4
	C65.9-2.1,44.9-6.8,40.9,23.8c0,0-6.8-0.5-12.7-6.7c0.4,2.5,1.2,9.3,11.3,12.3l0.7,0.2l-9.3,55.7c-11.3,2.1-21.3,4-23.9,4.4
	c0,0-4,0.3-5.6,3.4c-4.4,8.6,1.6,20.7,15.9,20.7c15,0,21.6-13.9,23.9-20.4c24.3-3.2,52.7-6.9,53.8-7.1c1.3-0.2,2.5-0.5,3.6-0.8
	c6-1.8,9.4-5.2,9.4-15.1C108,70.3,106.5,71.9,83.5,75.9 M60,7.1c0.4,0,0.7,0,1.1,0.1c2,0.5,3.2,2.5,3,5.2c-0.2,4.9-4.3,11-11.4,11.8
	h-0.8C51.9,24.2,53.8,7.1,60,7.1 M14.9,106.6c-5.5,0-8.7-3-8.8-6.7c0-0.2-0.1-1.1,0.3-2c0,0,9.5-1.2,22.3-2.9
	C27,99.8,23.2,106.6,14.9,106.6"/>
</svg>
