<svg width="180" height="179" viewBox="0 0 180 179" fill="none" xmlns="http://www.w3.org/2000/svg">
<path d="M14.2711 119.352C15.2745 119.352 15.7762 120.136 15.7762 121.704C15.2745 125.457 14.717 127.585 13.9924 128.145C13.7694 128.257 13.5464 128.257 13.3792 128.145C13.1562 128.033 13.1004 127.809 13.1562 127.585C13.8809 125.457 14.3826 123.385 14.6613 121.424C14.5498 120.864 14.3826 120.584 14.2711 120.584C12.1528 120.584 8.6966 124.729 4.01404 132.962C2.45318 136.378 1.67276 139.067 1.67276 140.915C1.67276 143.659 3.17787 145.059 6.18809 145.059H6.46681C10.4804 145.059 17.1698 142.595 26.5907 137.667C26.8694 137.667 27.0924 137.779 27.1481 137.891C27.2596 138.171 27.2039 138.395 27.0366 138.507C26.6464 138.955 23.3575 140.579 17.2256 143.379C12.5987 145.284 8.91958 146.292 6.13234 146.292C2.28595 146.292 0.390625 144.443 0.390625 140.803C0.390625 136.49 3.17787 130.666 8.75235 123.329C11.3166 120.696 13.1562 119.352 14.2711 119.352Z" fill="black"/>
<path d="M6.18767 146.74C2.1183 146.74 0 144.667 0 140.803C0 136.434 2.84299 130.442 8.41747 123.105C11.0932 120.304 12.9885 118.96 14.2149 118.96C15.1068 118.96 16.166 119.464 16.166 121.76V121.816C15.4971 126.969 14.7724 128.145 14.2149 128.537L14.1592 128.593C13.8247 128.761 13.4345 128.761 13.1 128.593C12.7098 128.369 12.5426 127.977 12.7098 127.529C13.4345 125.457 13.8805 123.441 14.1592 121.536C14.1034 121.312 14.0477 121.2 14.0477 121.144C12.6541 121.312 9.81109 123.665 4.3481 133.298C2.84299 136.658 2.06256 139.235 2.06256 141.027C2.06256 143.547 3.34469 144.723 6.13193 144.723H6.41065C10.3128 144.723 17.0022 142.259 26.3116 137.33L26.423 137.274H26.5345C26.9805 137.33 27.315 137.442 27.4264 137.722L27.4822 137.778C27.6494 138.339 27.4264 138.675 27.315 138.843C26.9805 139.179 25.5869 140.075 17.3924 143.827C12.8213 145.732 9.03066 146.74 6.18767 146.74ZM14.2707 119.8C13.6017 119.8 12.0966 120.472 9.14215 123.665C3.67916 130.834 0.891917 136.602 0.891917 140.803C0.891917 144.219 2.62001 145.844 6.18767 145.844C8.91917 145.844 12.5426 144.891 17.1137 142.987C25.0294 139.347 26.5345 138.395 26.7575 138.171C26.7575 138.171 26.7575 138.115 26.7575 138.059C26.7575 138.059 26.7018 138.059 26.646 138.059C17.1694 143.043 10.5358 145.452 6.4664 145.452H6.18767C2.95448 145.452 1.22639 143.883 1.22639 140.915C1.22639 138.955 2.00681 136.322 3.56767 132.738C8.47321 124.113 11.8736 120.136 14.2149 120.136C14.7166 120.136 14.8839 120.752 15.0511 121.312V121.368V121.424C14.7724 123.385 14.2707 125.513 13.546 127.697C13.6017 127.753 13.6575 127.753 13.7132 127.753C14.0477 127.417 14.7166 126.185 15.2741 121.648C15.3298 119.8 14.5494 119.8 14.2707 119.8Z" fill="black"/>
<path d="M38.9654 137.722C41.1952 138.002 41.3624 137.946 43.4807 137.834C46.1565 137.666 47.7731 136.714 47.7731 136.714C48.0518 136.602 49.1667 137.89 48.1076 138.395C46.6582 139.179 44.6514 139.347 44.5956 139.347C42.979 139.683 40.2475 139.459 40.2475 139.459C38.5194 139.347 36.7914 139.067 34.896 138.731C33.9484 138.563 33.0007 138.395 32.053 138.282C31.9973 138.451 31.9416 139.011 31.7743 140.019C31.7186 140.131 31.7186 140.243 31.7186 140.355C31.4956 141.531 30.9939 142.819 30.1577 144.219C29.3216 145.619 28.1509 146.292 26.5343 146.348H26.1998C24.5832 146.124 23.7471 145.059 23.7471 143.099C23.8586 140.579 25.4752 137.946 28.7084 135.258C29.4888 135.034 29.879 135.426 29.879 136.378C26.3113 139.571 24.8062 142.091 25.4752 143.995C25.6981 144.443 26.0884 144.723 26.7573 144.723C28.8198 143.995 30.0462 141.475 30.4922 137.05C30.6037 136.77 30.7152 136.546 30.9939 136.49C31.2169 136.434 31.4956 136.434 31.7743 136.546C32.722 136.714 33.6139 136.882 34.5058 136.994C36.5684 137.33 37.0701 137.442 38.9654 137.722Z" fill="black"/>
<path d="M75.1989 124.561H75.3661C75.9235 124.673 76.2023 125.009 76.2023 125.681V126.073C76.2023 127.585 75.1989 129.937 73.1921 133.13C72.4674 134.362 71.0738 136.098 68.9554 138.283C68.7325 138.283 68.398 139.067 67.952 140.579C67.4503 142.035 67.2274 143.211 67.2274 144.107C67.2274 144.723 67.3946 145.003 67.7291 145.003C72.4674 145.003 79.6585 143.323 94.5423 138.17H94.5981C94.9325 138.17 95.1555 138.395 95.267 138.843C95.267 139.235 94.821 139.515 93.8734 139.739C79.6027 144.667 72.6346 146.292 67.7848 146.292C67.0044 146.292 66.4469 145.844 66.1125 144.947C66.0567 144.667 66.001 144.443 66.001 144.275V143.771C66.001 141.251 67.7848 136.602 71.2967 129.713C72.1329 128.145 73.1363 126.633 74.307 125.065C74.5857 124.729 74.9201 124.561 75.1989 124.561ZM74.4742 126.409C74.1397 126.745 71.1852 131.786 69.7916 135.09C75.2546 130.441 75.2546 125.849 75.2546 125.849L74.4742 126.409Z" fill="black"/>
<path d="M67.6738 146.572C66.7819 146.572 66.1129 146.068 65.7785 145.059C65.7227 144.723 65.667 144.499 65.667 144.275V143.771C65.667 141.195 67.3951 136.546 71.0185 129.601C71.8547 128.033 72.8581 126.465 74.0287 124.897C74.5304 124.505 74.8649 124.337 75.1994 124.337H75.3666C75.8683 124.393 76.4257 124.729 76.4257 125.681V126.073C76.4257 127.641 75.4223 129.993 73.3598 133.242C72.6351 134.474 71.1857 136.21 69.0674 138.451L69.0117 138.507H68.9002C68.9002 138.507 68.6772 138.787 68.1198 140.579C67.6181 141.979 67.3951 143.155 67.3951 144.051C67.3951 144.499 67.5066 144.723 67.6738 144.723C72.6351 144.723 80.3836 142.763 94.4313 137.946H94.4871C94.8215 137.946 95.2675 138.115 95.379 138.843C95.379 139.683 94.1526 139.963 93.7624 140.019C80.2164 144.723 72.9138 146.572 67.6738 146.572ZM75.3108 124.785H75.1994C75.0321 124.785 74.8091 124.841 74.3632 125.233C73.2483 126.745 72.2449 128.257 71.4087 129.825C67.8968 136.658 66.1129 141.307 66.1129 143.771V144.275C66.1129 144.443 66.1687 144.611 66.2244 144.891C66.5032 145.676 66.9491 146.068 67.6738 146.068C72.8581 146.068 80.1049 144.219 93.7066 139.515C94.4871 139.347 94.933 139.067 94.933 138.843C94.8215 138.395 94.5986 138.395 94.5428 138.395C80.4951 143.211 72.7466 145.227 67.6738 145.227C67.3393 145.227 66.9491 145.003 66.9491 144.051C66.9491 143.099 67.2278 141.867 67.6738 140.411C68.2313 138.451 68.51 138.059 68.7887 138.002C70.8513 135.818 72.2449 134.138 72.9696 132.962C74.9206 129.825 75.924 127.529 75.924 126.017V125.625C75.924 125.009 75.5896 124.841 75.3108 124.785ZM69.1232 135.93L69.5691 134.978C70.9627 131.842 73.9172 126.633 74.3074 126.241L75.4781 125.401V125.905C75.4781 126.073 75.3666 130.666 69.9036 135.314L69.1232 135.93ZM74.6419 126.577C74.3074 126.913 72.0219 130.946 70.461 134.138C73.973 130.778 74.7534 127.585 74.9206 126.353L74.6419 126.577Z" fill="black"/>
<path d="M115.114 119.352C116.117 119.352 116.619 120.136 116.619 121.704C116.117 125.457 115.56 127.585 114.835 128.145C114.612 128.257 114.389 128.257 114.222 128.145C113.999 128.033 113.943 127.809 113.999 127.585C114.724 125.457 115.225 123.385 115.504 121.424C115.393 120.864 115.225 120.584 115.114 120.584C112.996 120.584 109.539 124.729 104.857 132.962C103.296 136.434 102.516 139.067 102.516 140.915C102.516 143.659 104.021 145.059 107.031 145.059H107.31C111.323 145.059 118.013 142.595 127.433 137.667C127.712 137.667 127.935 137.779 127.991 137.891C128.102 138.171 128.047 138.395 127.879 138.507C127.489 138.955 124.2 140.579 118.068 143.379C113.442 145.284 109.762 146.292 106.975 146.292C103.129 146.292 101.233 144.443 101.233 140.803C101.233 136.49 104.021 130.666 109.595 123.329C112.159 120.696 113.999 119.352 115.114 119.352Z" fill="black"/>
<path d="M107.03 146.74C102.961 146.74 100.843 144.667 100.843 140.803C100.843 136.434 103.686 130.442 109.26 123.105C111.936 120.304 113.831 118.96 115.058 118.96C115.95 118.96 117.009 119.464 117.009 121.76V121.816C116.34 126.969 115.615 128.145 115.058 128.537L115.002 128.593C114.667 128.761 114.277 128.761 113.943 128.593C113.553 128.369 113.385 127.977 113.553 127.529C114.277 125.457 114.723 123.441 115.002 121.536C114.946 121.312 114.89 121.2 114.89 121.144C113.497 121.312 110.654 123.665 105.191 133.298C103.686 136.658 102.905 139.235 102.905 141.027C102.905 143.547 104.187 144.723 106.975 144.723H107.253C111.156 144.723 117.845 142.259 127.154 137.33L127.266 137.274H127.377C127.823 137.33 128.158 137.442 128.269 137.722L128.325 137.778C128.492 138.339 128.269 138.675 128.158 138.843C127.823 139.179 126.43 140.075 118.235 143.827C113.664 145.732 109.873 146.74 107.03 146.74ZM115.113 119.8C114.445 119.8 112.939 120.472 109.985 123.665C104.522 130.834 101.735 136.602 101.735 140.803C101.735 144.219 103.463 145.844 107.03 145.844C109.762 145.844 113.385 144.891 117.956 142.987C125.872 139.347 127.377 138.395 127.6 138.171C127.6 138.171 127.6 138.115 127.6 138.059C127.6 138.059 127.545 138.059 127.489 138.059C118.124 142.987 111.323 145.452 107.309 145.452H107.03C103.797 145.452 102.069 143.883 102.069 140.915C102.069 138.955 102.85 136.322 104.41 132.738C109.316 124.113 112.716 120.136 115.058 120.136C115.559 120.136 115.727 120.752 115.894 121.312V121.368V121.424C115.615 123.385 115.113 125.513 114.389 127.697C114.445 127.753 114.5 127.753 114.556 127.753C114.89 127.417 115.559 126.185 116.117 121.648C116.173 119.8 115.392 119.8 115.113 119.8Z" fill="black"/>
<path d="M133.174 134.81C134.791 134.866 135.627 135.146 135.738 135.762C135.794 136.266 135.738 136.658 135.627 136.938L135.738 136.77C136.352 135.874 136.965 135.37 137.689 135.37C138.135 135.482 138.303 135.762 138.303 136.322C137.411 138.395 136.463 140.467 136.519 142.595C136.63 145.507 140.365 144.499 140.365 144.499C143.877 143.827 146.943 142.539 149.675 141.027C150.232 140.859 150.121 141.755 150.344 142.091C150.567 142.483 152.741 142.315 143.71 145.507C142.261 145.9 140.755 146.236 139.195 146.46H138.247C136.073 146.292 134.846 145.003 134.568 142.595C134.568 141.475 134.791 140.355 135.292 139.179C132.394 141.083 129.829 142.203 127.432 142.483C125.76 142.315 124.868 141.587 124.868 140.299C124.868 138.787 126.485 137.162 129.774 135.37C130.833 135.202 131.892 134.922 133.174 134.81ZM126.931 140.355C126.819 140.691 127.098 140.803 127.878 140.747C130.387 140.355 132.784 139.123 135.125 136.994L133.732 136.826H132.951C130.554 136.77 128.547 137.946 126.931 140.355Z" fill="black"/>
<path d="M170.356 142.595C163.89 145.283 158.873 146.628 155.361 146.628H154.636C150.901 146.628 149.062 144.667 149.006 140.691C149.006 140.187 149.229 139.347 149.563 138.226C150.344 135.874 152.072 131.282 152.518 130.553C152.797 130.217 153.187 130.161 153.688 130.385C154.023 130.609 154.134 130.945 153.967 131.394C153.856 131.562 152.295 135.706 151.626 137.498L162.663 135.762C162.886 135.762 163.054 135.818 163.165 135.93C163.277 136.042 163.388 136.266 163.388 136.602C163.388 136.938 163.221 137.162 162.942 137.218L151.18 139.067C151.013 139.795 150.901 140.355 150.845 140.859C150.845 143.547 152.239 144.891 155.026 144.891H156.253C159.151 144.891 163.667 143.659 169.799 141.139C172.53 139.907 175.54 138.506 178.829 136.882C179.108 136.77 179.331 136.77 179.554 136.882C179.777 136.938 179.889 137.162 179.889 137.61C179.889 138.17 176.711 139.851 170.356 142.595Z" fill="black"/>
<path d="M155.417 146.74H154.692C150.901 146.74 149.006 144.723 148.95 140.691C149.006 140.187 149.173 139.347 149.508 138.17C150.232 135.874 152.016 131.17 152.462 130.497C152.797 130.105 153.243 130.049 153.744 130.329C154.023 130.497 154.302 130.834 154.079 131.45V131.506C153.967 131.674 152.518 135.426 151.793 137.442L162.663 135.762C162.886 135.762 163.109 135.818 163.277 135.93C163.444 136.042 163.5 136.266 163.5 136.658C163.5 137.05 163.332 137.274 162.998 137.386L151.291 139.179C151.124 139.851 151.013 140.411 150.957 140.915C150.957 143.547 152.295 144.835 155.026 144.835H156.253C159.096 144.835 163.667 143.547 169.743 141.083C172.475 139.851 175.54 138.451 178.774 136.826C179.052 136.714 179.331 136.714 179.61 136.826C179.889 136.882 180.056 137.162 180 137.666C180 138.058 178.997 139.067 170.468 142.819H170.412C163.946 145.395 158.873 146.74 155.417 146.74ZM153.187 130.329C152.964 130.329 152.797 130.441 152.685 130.609C152.295 131.282 150.511 135.93 149.786 138.227C149.452 139.347 149.229 140.187 149.229 140.691C149.229 144.611 151.068 146.516 154.748 146.516H155.472C158.929 146.516 164.001 145.171 170.412 142.483H170.468C178.662 138.899 179.889 137.89 179.889 137.554C179.889 137.162 179.833 136.994 179.666 136.938C179.443 136.882 179.22 136.882 178.997 136.938C175.763 138.563 172.697 140.019 169.966 141.195C163.834 143.715 159.263 144.947 156.364 144.947H155.138C152.295 144.947 150.846 143.547 150.846 140.803C150.901 140.299 151.013 139.683 151.18 138.955V138.899H151.236L162.998 137.05C163.221 136.994 163.332 136.826 163.332 136.546C163.332 136.266 163.277 136.042 163.165 135.986C163.054 135.874 162.886 135.818 162.719 135.874L151.514 137.61L151.57 137.442C152.183 135.762 153.689 131.674 153.911 131.338C154.023 130.946 153.967 130.665 153.689 130.497C153.466 130.385 153.298 130.329 153.187 130.329Z" fill="black"/>
<path d="M59.4801 137.722C61.7098 138.002 61.8771 137.946 63.9954 137.834C66.6711 137.666 68.2877 136.714 68.2877 136.714C68.5665 136.602 69.6814 137.89 68.6222 138.395C67.1728 139.179 65.166 139.347 65.1103 139.347C63.4937 139.683 60.7622 139.459 60.7622 139.459C59.0341 139.347 57.306 139.067 55.4107 138.731C54.463 138.563 53.5154 138.395 52.5677 138.282C52.512 138.451 52.4562 139.011 52.289 140.019C52.2332 140.131 52.2332 140.243 52.2332 140.355C52.0102 141.531 51.5085 142.819 50.6724 144.219C49.8362 145.619 48.6656 146.292 47.049 146.348H46.7145C45.0979 146.124 44.2617 145.059 44.2617 143.099C44.3732 140.579 45.9898 137.946 49.223 135.258C50.0034 135.034 50.3936 135.426 50.3936 136.378C46.826 139.571 45.3209 142.091 45.9898 143.995C46.2128 144.443 46.603 144.723 47.2719 144.723C49.3345 143.995 50.5609 141.475 51.0068 137.05C51.1183 136.77 51.2298 136.546 51.5085 136.49C51.7315 136.434 52.0102 136.434 52.289 136.546C53.2366 136.714 54.1285 136.882 55.0205 136.994C57.083 137.33 57.6405 137.442 59.4801 137.722Z" fill="black"/>
<path d="M133.676 0.168023L116.451 48.2785L91.4772 26.3235L133.676 0.168023ZM134.791 1.90426L117.789 49.4546L134.791 64.4086C134.791 36.2369 134.791 29.2919 134.791 1.90426ZM88.4112 25.9875L46.1009 0L63.4933 48.0544L88.4112 25.9875ZM45.209 64.1286L62.1554 49.1746L45.209 2.40832C45.209 28.8999 45.209 35.9568 45.209 64.1286ZM115.503 49.5106L89.9721 26.8836L64.4409 49.4546L89.9721 80.8748L115.503 49.5106ZM116.73 50.5748L89.9721 83.5072L63.2146 50.5748L45.7107 66.0889C60.5946 81.0989 75.4784 96.1089 90.1393 110.951C104.856 96.1089 119.684 81.1549 134.401 66.2569L116.73 50.5748Z" fill="black"/>
<path d="M15.6641 163.486H17.1692L20.8483 175.36L25.4194 163.15H25.5309L30.102 175.36L33.7811 163.486H35.2305L30.2135 179H30.102L25.4752 166.622L20.7368 179H20.6254L15.6641 163.486Z" fill="black"/>
<path d="M37.9619 163.486H39.4113V178.664H37.9619V163.486Z" fill="black"/>
<path d="M44.7627 166.734V178.664H43.4248V163.094H43.5363L53.7376 175.416V163.43H55.0755V179H54.964L44.7627 166.734Z" fill="black"/>
<path d="M58.9775 163.486H68.1197V164.774H60.4269V172.391H67.2835V173.679H60.4269V177.432H68.4542V178.72H58.9775V163.486Z" fill="black"/>
<path d="M76.3701 175.135C77.1505 176.648 78.5441 177.544 80.328 177.544C82.3905 177.544 83.6169 176.536 83.6169 174.911C83.6169 173.231 82.6135 172.447 80.7739 171.607L79.5476 171.047C77.3735 170.039 76.0356 169.031 76.0356 166.902C76.0356 164.718 77.708 163.262 79.9378 163.262C81.8331 163.262 83.171 163.99 84.0629 165.502L82.948 166.23C82.2791 165.11 81.3314 164.55 79.9378 164.55C78.4327 164.55 77.4292 165.502 77.4292 166.846C77.4292 168.303 78.2654 168.863 80.105 169.703L81.3314 170.263C83.7842 171.439 85.0105 172.559 85.0105 174.855C85.0105 177.376 83.1152 178.832 80.2722 178.832C77.8195 178.832 76.0356 177.6 75.0322 175.752L76.3701 175.135Z" fill="black"/>
<path d="M89.6378 178.664H88.1885V163.43H91.4217C95.5468 163.43 97.6651 165.894 97.6651 169.143C97.6651 172.391 95.5468 174.855 91.4217 174.855H89.6378V178.664V178.664ZM91.3102 173.567C94.7664 173.567 96.16 171.719 96.16 169.199C96.16 166.622 94.7664 164.774 91.3102 164.774H89.5821V173.623H91.3102V173.567Z" fill="black"/>
<path d="M109.984 178.664H108.2L105.19 174.743C104.8 174.799 104.41 174.855 103.964 174.855H102.124V178.664H100.675V163.43H103.964C108.089 163.43 110.207 165.894 110.207 169.143C110.207 171.607 108.981 173.567 106.639 174.407L109.984 178.664ZM103.852 173.623C107.308 173.623 108.702 171.775 108.702 169.199C108.702 166.622 107.308 164.774 103.852 164.774H102.068V173.623H103.852Z" fill="black"/>
<path d="M113.44 163.486H114.89V178.664H113.44V163.486Z" fill="black"/>
<path d="M122.192 164.774H117.51V163.486H128.324V164.774H123.642V178.664H122.192V164.774Z" fill="black"/>
<path d="M129.272 178.608L138.08 164.774H130.332V163.486H140.477V163.598L131.669 177.432H140.533V178.72H129.272V178.608Z" fill="black"/>
<path d="M143.319 163.486H152.462V164.774H144.769V172.391H151.625V173.679H144.769V177.432H152.74V178.72H143.264V163.486H143.319Z" fill="black"/>
<path d="M165.172 178.664H163.388L160.378 174.743C159.987 174.799 159.597 174.855 159.151 174.855H157.312V178.664H155.862V163.43H159.151C163.276 163.43 165.395 165.894 165.395 169.143C165.395 171.607 164.168 173.567 161.827 174.407L165.172 178.664ZM159.04 173.623C162.496 173.623 163.89 171.775 163.89 169.199C163.89 166.622 162.496 164.774 159.04 164.774H157.256V173.623H159.04Z" fill="black"/>
</svg>
