<?xml version="1.0" encoding="utf-8"?>
<!-- Generator: Adobe Illustrator 26.4.1, SVG Export Plug-In . SVG Version: 6.00 Build 0)  -->
<svg version="1.1" id="Camada_1" xmlns="http://www.w3.org/2000/svg" xmlns:xlink="http://www.w3.org/1999/xlink" x="0px" y="0px"
	 viewBox="0 0 308.4 51" style="enable-background:new 0 0 308.4 51;" xml:space="preserve">
<style type="text/css">
	.st0{fill:#00BBD2;}
	.st1{enable-background:new    ;}
	.st2{fill:#F9A238;}
</style>
<circle class="st0" cx="19.5" cy="25.5" r="18.5"/>
<g class="st1">
	<path d="M59.6,32.2l-3.8-5.4c-0.5,0.1-1,0.1-1.6,0.1h-4.6v5.2h-1.2v-16h5.7c4,0,6.5,2,6.5,5.4c0,2.5-1.4,4.3-3.8,5l4,5.6H59.6z
		 M54.2,26c3.4,0,5.3-1.6,5.3-4.3c0-2.8-1.8-4.3-5.3-4.3h-4.6V26H54.2z"/>
	<path d="M74.7,26.5H64.4c0.1,2.8,2.2,4.8,5.1,4.8c1.5,0,2.9-0.5,3.8-1.7l0.7,0.8c-1.1,1.3-2.7,1.9-4.5,1.9c-3.6,0-6.2-2.5-6.2-6.1
		c0-3.5,2.4-6.1,5.7-6.1c3.3,0,5.7,2.5,5.7,6C74.7,26.3,74.7,26.4,74.7,26.5z M64.5,25.6h9.1c-0.2-2.6-2-4.4-4.6-4.4
		C66.5,21.2,64.6,23,64.5,25.6z"/>
	<path d="M84.2,31.5c-0.6,0.6-1.6,0.8-2.4,0.8c-2.1,0-3.2-1.2-3.2-3.2v-7.8h-2.2v-1h2.2v-2.6h1.1v2.6h3.8v1h-3.8V29
		c0,1.5,0.8,2.4,2.2,2.4c0.7,0,1.4-0.2,1.9-0.7L84.2,31.5z"/>
	<path d="M96,24.7v7.6h-1.1v-2.1c-0.8,1.4-2.2,2.2-4.3,2.2c-2.7,0-4.3-1.4-4.3-3.4c0-1.8,1.1-3.3,4.5-3.3h4.1v-1
		c0-2.2-1.2-3.4-3.5-3.4c-1.6,0-3.1,0.6-4.1,1.5l-0.6-0.8c1.2-1.1,2.9-1.7,4.8-1.7C94.4,20.2,96,21.7,96,24.7z M94.9,28.7v-2.2h-4.1
		c-2.5,0-3.3,1-3.3,2.4c0,1.6,1.2,2.5,3.3,2.5C92.8,31.4,94.2,30.4,94.9,28.7z"/>
	<path d="M100.4,16.5c0-0.5,0.4-0.9,0.9-0.9c0.5,0,0.9,0.4,0.9,0.9c0,0.5-0.4,0.9-0.9,0.9C100.8,17.4,100.4,17,100.4,16.5z
		 M100.7,20.3h1.1v11.9h-1.1V20.3z"/>
	<path d="M106.7,15.3h1.1v17h-1.1V15.3z"/>
</g>
<circle class="st2" cx="147" cy="25.5" r="18.5"/>
<g class="st1">
	<path d="M174.4,24.2c0-4.6,3.5-8.1,8.3-8.1c4.8,0,8.3,3.5,8.3,8.1c0,4.7-3.6,8.1-8.3,8.1C178,32.4,174.4,28.9,174.4,24.2z
		 M189.9,24.2c0-4-3.1-7-7.1-7c-4.1,0-7.2,3-7.2,7c0,4,3.1,7,7.2,7C186.8,31.3,189.9,28.3,189.9,24.2z"/>
	<path d="M205.4,25.3v7h-1.1v-6.9c0-2.7-1.4-4.1-3.9-4.1c-2.8,0-4.5,1.8-4.5,4.6v6.4h-1.1V20.3h1.1v2.6c0.8-1.7,2.5-2.7,4.7-2.7
		C203.5,20.2,205.4,21.9,205.4,25.3z"/>
	<path d="M228.6,21.6c0,3.4-2.4,5.4-6.5,5.4h-4.6v5.2h-1.2v-16h5.7C226.2,16.2,228.6,18.2,228.6,21.6z M227.4,21.6
		c0-2.8-1.8-4.3-5.3-4.3h-4.6v8.7h4.6C225.6,25.9,227.4,24.4,227.4,21.6z"/>
	<path d="M237.5,20.2v1.1c-0.1,0-0.2,0-0.3,0c-2.7,0-4.2,1.8-4.2,4.7v6.2h-1.1V20.3h1.1v2.6C233.6,21.2,235.2,20.2,237.5,20.2z"/>
	<path d="M250.6,26.5h-10.3c0.1,2.8,2.2,4.8,5.1,4.8c1.5,0,2.9-0.5,3.8-1.7l0.7,0.8c-1.1,1.3-2.7,1.9-4.5,1.9
		c-3.6,0-6.2-2.5-6.2-6.1c0-3.5,2.4-6.1,5.7-6.1c3.3,0,5.7,2.5,5.7,6C250.6,26.3,250.6,26.4,250.6,26.5z M240.3,25.6h9.1
		c-0.2-2.6-2-4.4-4.6-4.4C242.4,21.2,240.5,23,240.3,25.6z"/>
	<path d="M273.8,25.3v7h-1.1v-6.9c0-2.7-1.4-4.1-3.7-4.1c-2.7,0-4.4,1.8-4.4,4.6v6.4h-1.1v-6.9c0-2.7-1.4-4.1-3.7-4.1
		c-2.7,0-4.4,1.8-4.4,4.6v6.4h-1.1V20.3h1.1v2.6c0.8-1.7,2.4-2.7,4.6-2.7c2.2,0,3.7,1,4.4,2.9c0.8-1.7,2.5-2.9,4.8-2.9
		C271.9,20.2,273.8,21.9,273.8,25.3z"/>
	<path d="M278.1,16.5c0-0.5,0.4-0.9,0.9-0.9s0.9,0.4,0.9,0.9c0,0.5-0.4,0.9-0.9,0.9S278.1,17,278.1,16.5z M278.5,20.3h1.1v11.9h-1.1
		V20.3z"/>
	<path d="M282.7,30.8l0.5-0.9c0.9,0.8,2.5,1.4,4.3,1.4c2.5,0,3.5-0.9,3.5-2.2c0-3.5-7.9-0.9-7.9-5.6c0-1.8,1.5-3.3,4.5-3.3
		c1.5,0,3.2,0.5,4.1,1.2l-0.5,0.9c-1-0.7-2.3-1.1-3.6-1.1c-2.3,0-3.4,1-3.4,2.2c0,3.6,7.9,1.1,7.9,5.6c0,1.9-1.7,3.3-4.7,3.3
		C285.5,32.3,283.6,31.7,282.7,30.8z"/>
	<path d="M305.5,26.5h-10.3c0.1,2.8,2.2,4.8,5.1,4.8c1.5,0,2.9-0.5,3.8-1.7l0.7,0.8c-1.1,1.3-2.7,1.9-4.5,1.9
		c-3.6,0-6.2-2.5-6.2-6.1c0-3.5,2.4-6.1,5.7-6.1c3.3,0,5.7,2.5,5.7,6C305.5,26.3,305.5,26.4,305.5,26.5z M295.2,25.6h9.1
		c-0.2-2.6-2-4.4-4.6-4.4C297.3,21.2,295.4,23,295.2,25.6z"/>
</g>
</svg>
